<?xml version="1.0" encoding="utf-8" standalone="no"?>
<!DOCTYPE svg PUBLIC "-//W3C//DTD SVG 1.1//EN"
  "http://www.w3.org/Graphics/SVG/1.1/DTD/svg11.dtd">
<!-- Created with matplotlib (https://matplotlib.org/) -->
<svg height="720pt" version="1.1" viewBox="0 0 504 720" width="504pt" xmlns="http://www.w3.org/2000/svg" xmlns:xlink="http://www.w3.org/1999/xlink">
 <defs>
  <style type="text/css">
*{stroke-linecap:butt;stroke-linejoin:round;white-space:pre;}
  </style>
 </defs>
 <g id="figure_1">
  <g id="patch_1">
   <path d="M 0 720 
L 504 720 
L 504 0 
L 0 0 
z
" style="fill:#ffffff;"/>
  </g>
  <g id="axes_1">
   <g id="patch_2">
    <path d="M 63 246.282353 
L 453.6 246.282353 
L 453.6 86.4 
L 63 86.4 
z
" style="fill:#ffffff;"/>
   </g>
   <g id="matplotlib.axis_1">
    <g id="xtick_1">
     <g id="line2d_1">
      <defs>
       <path d="M 0 0 
L 0 3.5 
" id="m3e3226bae6" style="stroke:#000000;stroke-width:0.8;"/>
      </defs>
      <g>
       <use style="stroke:#000000;stroke-width:0.8;" x="63" xlink:href="#m3e3226bae6" y="246.282353"/>
      </g>
     </g>
     <g id="text_1">
      <!-- 0.0 -->
      <defs>
       <path d="M 31.78125 66.40625 
Q 24.171875 66.40625 20.328125 58.90625 
Q 16.5 51.421875 16.5 36.375 
Q 16.5 21.390625 20.328125 13.890625 
Q 24.171875 6.390625 31.78125 6.390625 
Q 39.453125 6.390625 43.28125 13.890625 
Q 47.125 21.390625 47.125 36.375 
Q 47.125 51.421875 43.28125 58.90625 
Q 39.453125 66.40625 31.78125 66.40625 
z
M 31.78125 74.21875 
Q 44.046875 74.21875 50.515625 64.515625 
Q 56.984375 54.828125 56.984375 36.375 
Q 56.984375 17.96875 50.515625 8.265625 
Q 44.046875 -1.421875 31.78125 -1.421875 
Q 19.53125 -1.421875 13.0625 8.265625 
Q 6.59375 17.96875 6.59375 36.375 
Q 6.59375 54.828125 13.0625 64.515625 
Q 19.53125 74.21875 31.78125 74.21875 
z
" id="DejaVuSans-48"/>
       <path d="M 10.6875 12.40625 
L 21 12.40625 
L 21 0 
L 10.6875 0 
z
" id="DejaVuSans-46"/>
      </defs>
      <g transform="translate(55.048437 260.88079)scale(0.1 -0.1)">
       <use xlink:href="#DejaVuSans-48"/>
       <use x="63.623047" xlink:href="#DejaVuSans-46"/>
       <use x="95.410156" xlink:href="#DejaVuSans-48"/>
      </g>
     </g>
    </g>
    <g id="xtick_2">
     <g id="line2d_2">
      <g>
       <use style="stroke:#000000;stroke-width:0.8;" x="141.12" xlink:href="#m3e3226bae6" y="246.282353"/>
      </g>
     </g>
     <g id="text_2">
      <!-- 0.2 -->
      <defs>
       <path d="M 19.1875 8.296875 
L 53.609375 8.296875 
L 53.609375 0 
L 7.328125 0 
L 7.328125 8.296875 
Q 12.9375 14.109375 22.625 23.890625 
Q 32.328125 33.6875 34.8125 36.53125 
Q 39.546875 41.84375 41.421875 45.53125 
Q 43.3125 49.21875 43.3125 52.78125 
Q 43.3125 58.59375 39.234375 62.25 
Q 35.15625 65.921875 28.609375 65.921875 
Q 23.96875 65.921875 18.8125 64.3125 
Q 13.671875 62.703125 7.8125 59.421875 
L 7.8125 69.390625 
Q 13.765625 71.78125 18.9375 73 
Q 24.125 74.21875 28.421875 74.21875 
Q 39.75 74.21875 46.484375 68.546875 
Q 53.21875 62.890625 53.21875 53.421875 
Q 53.21875 48.921875 51.53125 44.890625 
Q 49.859375 40.875 45.40625 35.40625 
Q 44.1875 33.984375 37.640625 27.21875 
Q 31.109375 20.453125 19.1875 8.296875 
z
" id="DejaVuSans-50"/>
      </defs>
      <g transform="translate(133.168438 260.88079)scale(0.1 -0.1)">
       <use xlink:href="#DejaVuSans-48"/>
       <use x="63.623047" xlink:href="#DejaVuSans-46"/>
       <use x="95.410156" xlink:href="#DejaVuSans-50"/>
      </g>
     </g>
    </g>
    <g id="xtick_3">
     <g id="line2d_3">
      <g>
       <use style="stroke:#000000;stroke-width:0.8;" x="219.24" xlink:href="#m3e3226bae6" y="246.282353"/>
      </g>
     </g>
     <g id="text_3">
      <!-- 0.4 -->
      <defs>
       <path d="M 37.796875 64.3125 
L 12.890625 25.390625 
L 37.796875 25.390625 
z
M 35.203125 72.90625 
L 47.609375 72.90625 
L 47.609375 25.390625 
L 58.015625 25.390625 
L 58.015625 17.1875 
L 47.609375 17.1875 
L 47.609375 0 
L 37.796875 0 
L 37.796875 17.1875 
L 4.890625 17.1875 
L 4.890625 26.703125 
z
" id="DejaVuSans-52"/>
      </defs>
      <g transform="translate(211.288438 260.88079)scale(0.1 -0.1)">
       <use xlink:href="#DejaVuSans-48"/>
       <use x="63.623047" xlink:href="#DejaVuSans-46"/>
       <use x="95.410156" xlink:href="#DejaVuSans-52"/>
      </g>
     </g>
    </g>
    <g id="xtick_4">
     <g id="line2d_4">
      <g>
       <use style="stroke:#000000;stroke-width:0.8;" x="297.36" xlink:href="#m3e3226bae6" y="246.282353"/>
      </g>
     </g>
     <g id="text_4">
      <!-- 0.6 -->
      <defs>
       <path d="M 33.015625 40.375 
Q 26.375 40.375 22.484375 35.828125 
Q 18.609375 31.296875 18.609375 23.390625 
Q 18.609375 15.53125 22.484375 10.953125 
Q 26.375 6.390625 33.015625 6.390625 
Q 39.65625 6.390625 43.53125 10.953125 
Q 47.40625 15.53125 47.40625 23.390625 
Q 47.40625 31.296875 43.53125 35.828125 
Q 39.65625 40.375 33.015625 40.375 
z
M 52.59375 71.296875 
L 52.59375 62.3125 
Q 48.875 64.0625 45.09375 64.984375 
Q 41.3125 65.921875 37.59375 65.921875 
Q 27.828125 65.921875 22.671875 59.328125 
Q 17.53125 52.734375 16.796875 39.40625 
Q 19.671875 43.65625 24.015625 45.921875 
Q 28.375 48.1875 33.59375 48.1875 
Q 44.578125 48.1875 50.953125 41.515625 
Q 57.328125 34.859375 57.328125 23.390625 
Q 57.328125 12.15625 50.6875 5.359375 
Q 44.046875 -1.421875 33.015625 -1.421875 
Q 20.359375 -1.421875 13.671875 8.265625 
Q 6.984375 17.96875 6.984375 36.375 
Q 6.984375 53.65625 15.1875 63.9375 
Q 23.390625 74.21875 37.203125 74.21875 
Q 40.921875 74.21875 44.703125 73.484375 
Q 48.484375 72.75 52.59375 71.296875 
z
" id="DejaVuSans-54"/>
      </defs>
      <g transform="translate(289.408437 260.88079)scale(0.1 -0.1)">
       <use xlink:href="#DejaVuSans-48"/>
       <use x="63.623047" xlink:href="#DejaVuSans-46"/>
       <use x="95.410156" xlink:href="#DejaVuSans-54"/>
      </g>
     </g>
    </g>
    <g id="xtick_5">
     <g id="line2d_5">
      <g>
       <use style="stroke:#000000;stroke-width:0.8;" x="375.48" xlink:href="#m3e3226bae6" y="246.282353"/>
      </g>
     </g>
     <g id="text_5">
      <!-- 0.8 -->
      <defs>
       <path d="M 31.78125 34.625 
Q 24.75 34.625 20.71875 30.859375 
Q 16.703125 27.09375 16.703125 20.515625 
Q 16.703125 13.921875 20.71875 10.15625 
Q 24.75 6.390625 31.78125 6.390625 
Q 38.8125 6.390625 42.859375 10.171875 
Q 46.921875 13.96875 46.921875 20.515625 
Q 46.921875 27.09375 42.890625 30.859375 
Q 38.875 34.625 31.78125 34.625 
z
M 21.921875 38.8125 
Q 15.578125 40.375 12.03125 44.71875 
Q 8.5 49.078125 8.5 55.328125 
Q 8.5 64.0625 14.71875 69.140625 
Q 20.953125 74.21875 31.78125 74.21875 
Q 42.671875 74.21875 48.875 69.140625 
Q 55.078125 64.0625 55.078125 55.328125 
Q 55.078125 49.078125 51.53125 44.71875 
Q 48 40.375 41.703125 38.8125 
Q 48.828125 37.15625 52.796875 32.3125 
Q 56.78125 27.484375 56.78125 20.515625 
Q 56.78125 9.90625 50.3125 4.234375 
Q 43.84375 -1.421875 31.78125 -1.421875 
Q 19.734375 -1.421875 13.25 4.234375 
Q 6.78125 9.90625 6.78125 20.515625 
Q 6.78125 27.484375 10.78125 32.3125 
Q 14.796875 37.15625 21.921875 38.8125 
z
M 18.3125 54.390625 
Q 18.3125 48.734375 21.84375 45.5625 
Q 25.390625 42.390625 31.78125 42.390625 
Q 38.140625 42.390625 41.71875 45.5625 
Q 45.3125 48.734375 45.3125 54.390625 
Q 45.3125 60.0625 41.71875 63.234375 
Q 38.140625 66.40625 31.78125 66.40625 
Q 25.390625 66.40625 21.84375 63.234375 
Q 18.3125 60.0625 18.3125 54.390625 
z
" id="DejaVuSans-56"/>
      </defs>
      <g transform="translate(367.528437 260.88079)scale(0.1 -0.1)">
       <use xlink:href="#DejaVuSans-48"/>
       <use x="63.623047" xlink:href="#DejaVuSans-46"/>
       <use x="95.410156" xlink:href="#DejaVuSans-56"/>
      </g>
     </g>
    </g>
    <g id="xtick_6">
     <g id="line2d_6">
      <g>
       <use style="stroke:#000000;stroke-width:0.8;" x="453.6" xlink:href="#m3e3226bae6" y="246.282353"/>
      </g>
     </g>
     <g id="text_6">
      <!-- 1.0 -->
      <defs>
       <path d="M 12.40625 8.296875 
L 28.515625 8.296875 
L 28.515625 63.921875 
L 10.984375 60.40625 
L 10.984375 69.390625 
L 28.421875 72.90625 
L 38.28125 72.90625 
L 38.28125 8.296875 
L 54.390625 8.296875 
L 54.390625 0 
L 12.40625 0 
z
" id="DejaVuSans-49"/>
      </defs>
      <g transform="translate(445.648438 260.88079)scale(0.1 -0.1)">
       <use xlink:href="#DejaVuSans-49"/>
       <use x="63.623047" xlink:href="#DejaVuSans-46"/>
       <use x="95.410156" xlink:href="#DejaVuSans-48"/>
      </g>
     </g>
    </g>
   </g>
   <g id="matplotlib.axis_2">
    <g id="ytick_1">
     <g id="line2d_7">
      <defs>
       <path d="M 0 0 
L -3.5 0 
" id="m2e9bdbf186" style="stroke:#000000;stroke-width:0.8;"/>
      </defs>
      <g>
       <use style="stroke:#000000;stroke-width:0.8;" x="63" xlink:href="#m2e9bdbf186" y="246.282353"/>
      </g>
     </g>
     <g id="text_7">
      <!-- 0.0 -->
      <g transform="translate(40.096875 250.081572)scale(0.1 -0.1)">
       <use xlink:href="#DejaVuSans-48"/>
       <use x="63.623047" xlink:href="#DejaVuSans-46"/>
       <use x="95.410156" xlink:href="#DejaVuSans-48"/>
      </g>
     </g>
    </g>
    <g id="ytick_2">
     <g id="line2d_8">
      <g>
       <use style="stroke:#000000;stroke-width:0.8;" x="63" xlink:href="#m2e9bdbf186" y="214.305882"/>
      </g>
     </g>
     <g id="text_8">
      <!-- 0.2 -->
      <g transform="translate(40.096875 218.105101)scale(0.1 -0.1)">
       <use xlink:href="#DejaVuSans-48"/>
       <use x="63.623047" xlink:href="#DejaVuSans-46"/>
       <use x="95.410156" xlink:href="#DejaVuSans-50"/>
      </g>
     </g>
    </g>
    <g id="ytick_3">
     <g id="line2d_9">
      <g>
       <use style="stroke:#000000;stroke-width:0.8;" x="63" xlink:href="#m2e9bdbf186" y="182.329412"/>
      </g>
     </g>
     <g id="text_9">
      <!-- 0.4 -->
      <g transform="translate(40.096875 186.128631)scale(0.1 -0.1)">
       <use xlink:href="#DejaVuSans-48"/>
       <use x="63.623047" xlink:href="#DejaVuSans-46"/>
       <use x="95.410156" xlink:href="#DejaVuSans-52"/>
      </g>
     </g>
    </g>
    <g id="ytick_4">
     <g id="line2d_10">
      <g>
       <use style="stroke:#000000;stroke-width:0.8;" x="63" xlink:href="#m2e9bdbf186" y="150.352941"/>
      </g>
     </g>
     <g id="text_10">
      <!-- 0.6 -->
      <g transform="translate(40.096875 154.15216)scale(0.1 -0.1)">
       <use xlink:href="#DejaVuSans-48"/>
       <use x="63.623047" xlink:href="#DejaVuSans-46"/>
       <use x="95.410156" xlink:href="#DejaVuSans-54"/>
      </g>
     </g>
    </g>
    <g id="ytick_5">
     <g id="line2d_11">
      <g>
       <use style="stroke:#000000;stroke-width:0.8;" x="63" xlink:href="#m2e9bdbf186" y="118.376471"/>
      </g>
     </g>
     <g id="text_11">
      <!-- 0.8 -->
      <g transform="translate(40.096875 122.175689)scale(0.1 -0.1)">
       <use xlink:href="#DejaVuSans-48"/>
       <use x="63.623047" xlink:href="#DejaVuSans-46"/>
       <use x="95.410156" xlink:href="#DejaVuSans-56"/>
      </g>
     </g>
    </g>
    <g id="ytick_6">
     <g id="line2d_12">
      <g>
       <use style="stroke:#000000;stroke-width:0.8;" x="63" xlink:href="#m2e9bdbf186" y="86.4"/>
      </g>
     </g>
     <g id="text_12">
      <!-- 1.0 -->
      <g transform="translate(40.096875 90.199219)scale(0.1 -0.1)">
       <use xlink:href="#DejaVuSans-49"/>
       <use x="63.623047" xlink:href="#DejaVuSans-46"/>
       <use x="95.410156" xlink:href="#DejaVuSans-48"/>
      </g>
     </g>
    </g>
   </g>
   <g id="patch_3">
    <path d="M 63 246.282353 
L 63 86.4 
" style="fill:none;stroke:#000000;stroke-linecap:square;stroke-linejoin:miter;stroke-width:0.8;"/>
   </g>
   <g id="patch_4">
    <path d="M 453.6 246.282353 
L 453.6 86.4 
" style="fill:none;stroke:#000000;stroke-linecap:square;stroke-linejoin:miter;stroke-width:0.8;"/>
   </g>
   <g id="patch_5">
    <path d="M 63 246.282353 
L 453.6 246.282353 
" style="fill:none;stroke:#000000;stroke-linecap:square;stroke-linejoin:miter;stroke-width:0.8;"/>
   </g>
   <g id="patch_6">
    <path d="M 63 86.4 
L 453.6 86.4 
" style="fill:none;stroke:#000000;stroke-linecap:square;stroke-linejoin:miter;stroke-width:0.8;"/>
   </g>
  </g>
  <g id="axes_2">
   <g id="patch_7">
    <path d="M 63 438.141176 
L 453.6 438.141176 
L 453.6 278.258824 
L 63 278.258824 
z
" style="fill:#ffffff;"/>
   </g>
   <g id="matplotlib.axis_3">
    <g id="xtick_7">
     <g id="line2d_13">
      <g>
       <use style="stroke:#000000;stroke-width:0.8;" x="130.302114" xlink:href="#m3e3226bae6" y="438.141176"/>
      </g>
     </g>
     <g id="text_13">
      <!-- 3.70 -->
      <defs>
       <path d="M 40.578125 39.3125 
Q 47.65625 37.796875 51.625 33 
Q 55.609375 28.21875 55.609375 21.1875 
Q 55.609375 10.40625 48.1875 4.484375 
Q 40.765625 -1.421875 27.09375 -1.421875 
Q 22.515625 -1.421875 17.65625 -0.515625 
Q 12.796875 0.390625 7.625 2.203125 
L 7.625 11.71875 
Q 11.71875 9.328125 16.59375 8.109375 
Q 21.484375 6.890625 26.8125 6.890625 
Q 36.078125 6.890625 40.9375 10.546875 
Q 45.796875 14.203125 45.796875 21.1875 
Q 45.796875 27.640625 41.28125 31.265625 
Q 36.765625 34.90625 28.71875 34.90625 
L 20.21875 34.90625 
L 20.21875 43.015625 
L 29.109375 43.015625 
Q 36.375 43.015625 40.234375 45.921875 
Q 44.09375 48.828125 44.09375 54.296875 
Q 44.09375 59.90625 40.109375 62.90625 
Q 36.140625 65.921875 28.71875 65.921875 
Q 24.65625 65.921875 20.015625 65.03125 
Q 15.375 64.15625 9.8125 62.3125 
L 9.8125 71.09375 
Q 15.4375 72.65625 20.34375 73.4375 
Q 25.25 74.21875 29.59375 74.21875 
Q 40.828125 74.21875 47.359375 69.109375 
Q 53.90625 64.015625 53.90625 55.328125 
Q 53.90625 49.265625 50.4375 45.09375 
Q 46.96875 40.921875 40.578125 39.3125 
z
" id="DejaVuSans-51"/>
       <path d="M 8.203125 72.90625 
L 55.078125 72.90625 
L 55.078125 68.703125 
L 28.609375 0 
L 18.3125 0 
L 43.21875 64.59375 
L 8.203125 64.59375 
z
" id="DejaVuSans-55"/>
      </defs>
      <g transform="translate(119.169302 452.739614)scale(0.1 -0.1)">
       <use xlink:href="#DejaVuSans-51"/>
       <use x="63.623047" xlink:href="#DejaVuSans-46"/>
       <use x="95.410156" xlink:href="#DejaVuSans-55"/>
       <use x="159.033203" xlink:href="#DejaVuSans-48"/>
      </g>
     </g>
    </g>
    <g id="xtick_8">
     <g id="line2d_14">
      <g>
       <use style="stroke:#000000;stroke-width:0.8;" x="212.881395" xlink:href="#m3e3226bae6" y="438.141176"/>
      </g>
     </g>
     <g id="text_14">
      <!-- 3.75 -->
      <defs>
       <path d="M 10.796875 72.90625 
L 49.515625 72.90625 
L 49.515625 64.59375 
L 19.828125 64.59375 
L 19.828125 46.734375 
Q 21.96875 47.46875 24.109375 47.828125 
Q 26.265625 48.1875 28.421875 48.1875 
Q 40.625 48.1875 47.75 41.5 
Q 54.890625 34.8125 54.890625 23.390625 
Q 54.890625 11.625 47.5625 5.09375 
Q 40.234375 -1.421875 26.90625 -1.421875 
Q 22.3125 -1.421875 17.546875 -0.640625 
Q 12.796875 0.140625 7.71875 1.703125 
L 7.71875 11.625 
Q 12.109375 9.234375 16.796875 8.0625 
Q 21.484375 6.890625 26.703125 6.890625 
Q 35.15625 6.890625 40.078125 11.328125 
Q 45.015625 15.765625 45.015625 23.390625 
Q 45.015625 31 40.078125 35.4375 
Q 35.15625 39.890625 26.703125 39.890625 
Q 22.75 39.890625 18.8125 39.015625 
Q 14.890625 38.140625 10.796875 36.28125 
z
" id="DejaVuSans-53"/>
      </defs>
      <g transform="translate(201.748583 452.739614)scale(0.1 -0.1)">
       <use xlink:href="#DejaVuSans-51"/>
       <use x="63.623047" xlink:href="#DejaVuSans-46"/>
       <use x="95.410156" xlink:href="#DejaVuSans-55"/>
       <use x="159.033203" xlink:href="#DejaVuSans-53"/>
      </g>
     </g>
    </g>
    <g id="xtick_9">
     <g id="line2d_15">
      <g>
       <use style="stroke:#000000;stroke-width:0.8;" x="295.460677" xlink:href="#m3e3226bae6" y="438.141176"/>
      </g>
     </g>
     <g id="text_15">
      <!-- 3.80 -->
      <g transform="translate(284.327864 452.739614)scale(0.1 -0.1)">
       <use xlink:href="#DejaVuSans-51"/>
       <use x="63.623047" xlink:href="#DejaVuSans-46"/>
       <use x="95.410156" xlink:href="#DejaVuSans-56"/>
       <use x="159.033203" xlink:href="#DejaVuSans-48"/>
      </g>
     </g>
    </g>
    <g id="xtick_10">
     <g id="line2d_16">
      <g>
       <use style="stroke:#000000;stroke-width:0.8;" x="378.039958" xlink:href="#m3e3226bae6" y="438.141176"/>
      </g>
     </g>
     <g id="text_16">
      <!-- 3.85 -->
      <g transform="translate(366.907145 452.739614)scale(0.1 -0.1)">
       <use xlink:href="#DejaVuSans-51"/>
       <use x="63.623047" xlink:href="#DejaVuSans-46"/>
       <use x="95.410156" xlink:href="#DejaVuSans-56"/>
       <use x="159.033203" xlink:href="#DejaVuSans-53"/>
      </g>
     </g>
    </g>
   </g>
   <g id="matplotlib.axis_4">
    <g id="ytick_7">
     <g id="line2d_17">
      <g>
       <use style="stroke:#000000;stroke-width:0.8;" x="63" xlink:href="#m2e9bdbf186" y="424.119983"/>
      </g>
     </g>
     <g id="text_17">
      <!-- 0.01 -->
      <g transform="translate(33.734375 427.919202)scale(0.1 -0.1)">
       <use xlink:href="#DejaVuSans-48"/>
       <use x="63.623047" xlink:href="#DejaVuSans-46"/>
       <use x="95.410156" xlink:href="#DejaVuSans-48"/>
       <use x="159.033203" xlink:href="#DejaVuSans-49"/>
      </g>
     </g>
    </g>
    <g id="ytick_8">
     <g id="line2d_18">
      <g>
       <use style="stroke:#000000;stroke-width:0.8;" x="63" xlink:href="#m2e9bdbf186" y="387.162475"/>
      </g>
     </g>
     <g id="text_18">
      <!-- 0.02 -->
      <g transform="translate(33.734375 390.961694)scale(0.1 -0.1)">
       <use xlink:href="#DejaVuSans-48"/>
       <use x="63.623047" xlink:href="#DejaVuSans-46"/>
       <use x="95.410156" xlink:href="#DejaVuSans-48"/>
       <use x="159.033203" xlink:href="#DejaVuSans-50"/>
      </g>
     </g>
    </g>
    <g id="ytick_9">
     <g id="line2d_19">
      <g>
       <use style="stroke:#000000;stroke-width:0.8;" x="63" xlink:href="#m2e9bdbf186" y="350.204967"/>
      </g>
     </g>
     <g id="text_19">
      <!-- 0.03 -->
      <g transform="translate(33.734375 354.004186)scale(0.1 -0.1)">
       <use xlink:href="#DejaVuSans-48"/>
       <use x="63.623047" xlink:href="#DejaVuSans-46"/>
       <use x="95.410156" xlink:href="#DejaVuSans-48"/>
       <use x="159.033203" xlink:href="#DejaVuSans-51"/>
      </g>
     </g>
    </g>
    <g id="ytick_10">
     <g id="line2d_20">
      <g>
       <use style="stroke:#000000;stroke-width:0.8;" x="63" xlink:href="#m2e9bdbf186" y="313.247459"/>
      </g>
     </g>
     <g id="text_20">
      <!-- 0.04 -->
      <g transform="translate(33.734375 317.046678)scale(0.1 -0.1)">
       <use xlink:href="#DejaVuSans-48"/>
       <use x="63.623047" xlink:href="#DejaVuSans-46"/>
       <use x="95.410156" xlink:href="#DejaVuSans-48"/>
       <use x="159.033203" xlink:href="#DejaVuSans-52"/>
      </g>
     </g>
    </g>
    <g id="text_21">
     <!-- $\langle n \rangle$ -->
     <defs>
      <path d="M 8.9375 31.34375 
L 22.703125 75.875 
L 31 75.875 
L 17.234375 31.34375 
L 31 -13.1875 
L 22.703125 -13.1875 
z
" id="DejaVuSans-10216"/>
      <path d="M 55.71875 33.015625 
L 49.3125 0 
L 40.28125 0 
L 46.6875 32.671875 
Q 47.125 34.96875 47.359375 36.71875 
Q 47.609375 38.484375 47.609375 39.5 
Q 47.609375 43.609375 45.015625 45.890625 
Q 42.4375 48.1875 37.796875 48.1875 
Q 30.5625 48.1875 25.34375 43.375 
Q 20.125 38.578125 18.5 30.328125 
L 12.5 0 
L 3.515625 0 
L 14.109375 54.6875 
L 23.09375 54.6875 
L 21.296875 46.09375 
Q 25.046875 50.828125 30.3125 53.40625 
Q 35.59375 56 41.40625 56 
Q 48.640625 56 52.609375 52.09375 
Q 56.59375 48.1875 56.59375 41.109375 
Q 56.59375 39.359375 56.375 37.359375 
Q 56.15625 35.359375 55.71875 33.015625 
z
" id="DejaVuSans-Oblique-110"/>
      <path d="M 30.078125 31.34375 
L 16.3125 -13.1875 
L 8.015625 -13.1875 
L 21.78125 31.34375 
L 8.015625 75.875 
L 16.3125 75.875 
z
" id="DejaVuSans-10217"/>
     </defs>
     <g transform="translate(27.654688 365.3)rotate(-90)scale(0.1 -0.1)">
      <use transform="translate(0 0.125)" xlink:href="#DejaVuSans-10216"/>
      <use transform="translate(39.013672 0.125)" xlink:href="#DejaVuSans-Oblique-110"/>
      <use transform="translate(102.392578 0.125)" xlink:href="#DejaVuSans-10217"/>
     </g>
    </g>
   </g>
   <g id="line2d_21">
    <path clip-path="url(#p0e0b4a6c7b)" d="M 80.754545 402.978497 
L 81.084863 409.119141 
L 81.41518 407.350342 
L 81.745497 410.47838 
L 82.075814 401.274442 
L 82.406131 416.517247 
L 82.736448 409.535229 
L 83.066765 409.458323 
L 83.397082 402.359761 
L 83.7274 408.540543 
L 84.057717 400.276404 
L 84.388034 402.066422 
L 84.718351 413.394551 
L 85.048668 395.092821 
L 85.378985 391.83149 
L 85.709302 408.682466 
L 86.700254 387.284465 
L 87.360888 403.192086 
L 87.691205 399.40842 
L 88.021522 402.531364 
L 88.351839 403.712744 
L 88.682156 397.797432 
L 89.012474 408.811934 
L 89.342791 385.180429 
L 89.673108 405.433393 
L 90.003425 413.482119 
L 90.333742 400.962817 
L 90.664059 396.818754 
L 91.324693 411.401104 
L 91.985328 387.043967 
L 92.315645 398.060583 
L 92.645962 392.011284 
L 92.976279 396.666333 
L 93.306596 393.733116 
L 93.636913 401.154474 
L 93.96723 385.170488 
L 94.297548 402.765458 
L 94.627865 395.428818 
L 94.958182 405.681782 
L 95.288499 387.303064 
L 95.618816 379.916859 
L 95.949133 401.200903 
L 96.27945 411.290368 
L 96.609767 410.527676 
L 96.940085 402.15689 
L 97.270402 397.558802 
L 97.600719 386.012045 
L 97.931036 383.838637 
L 98.261353 374.720241 
L 98.59167 386.484851 
L 98.921987 382.678691 
L 99.252304 395.804432 
L 99.582622 375.393718 
L 99.912939 394.456204 
L 100.243256 404.392948 
L 100.573573 391.753541 
L 100.90389 391.572029 
L 101.234207 388.290567 
L 101.564524 400.757965 
L 101.894841 384.699411 
L 102.225159 406.004523 
L 102.555476 397.745666 
L 102.885793 396.646868 
L 103.546427 381.363242 
L 103.876744 384.895307 
L 104.207061 378.857614 
L 104.537378 392.275971 
L 104.867696 391.379106 
L 105.198013 393.78924 
L 105.52833 384.469584 
L 105.858647 393.921653 
L 106.188964 399.356988 
L 106.519281 390.477559 
L 107.179915 396.401666 
L 107.510233 374.49896 
L 107.84055 384.773431 
L 108.501184 381.428244 
L 108.831501 398.218323 
L 109.161818 395.986094 
L 109.822452 385.586809 
L 110.15277 394.31278 
L 110.483087 379.991734 
L 110.813404 380.543963 
L 111.143721 380.588966 
L 111.474038 390.81141 
L 111.804355 406.975604 
L 112.134672 407.518517 
L 112.464989 398.381667 
L 112.795307 381.148004 
L 113.125624 402.064502 
L 113.455941 386.096161 
L 114.116575 402.762985 
L 114.446892 398.175859 
L 114.777209 383.230986 
L 115.107526 400.061883 
L 115.437844 394.521692 
L 115.768161 399.241724 
L 116.098478 389.238018 
L 116.428795 402.101054 
L 116.759112 382.935848 
L 117.089429 403.052407 
L 117.419746 400.008862 
L 117.750063 400.683087 
L 118.080381 420.787568 
L 118.410698 408.862738 
L 118.741015 413.172678 
L 119.071332 420.10362 
L 119.401649 397.175585 
L 119.731966 403.180012 
L 120.062283 395.093989 
L 120.3926 393.884878 
L 120.722918 395.321268 
L 121.053235 380.26271 
L 121.383552 378.137577 
L 121.713869 397.770775 
L 122.044186 402.638244 
L 122.374503 402.46719 
L 122.70482 399.068214 
L 123.035137 400.478253 
L 123.365455 394.347765 
L 123.695772 393.069232 
L 124.026089 399.229719 
L 124.356406 396.294643 
L 124.686723 394.819869 
L 125.01704 402.062078 
L 125.347357 406.498098 
L 125.677674 389.636774 
L 126.338309 394.321464 
L 126.668626 392.64638 
L 126.998943 396.876574 
L 127.659577 390.420347 
L 127.989894 394.131131 
L 128.320211 391.575991 
L 128.650529 353.798632 
L 128.980846 359.84374 
L 129.971797 399.738399 
L 130.302114 400.505019 
L 130.632431 372.068097 
L 130.962748 385.388796 
L 131.293066 388.405284 
L 131.623383 381.769961 
L 131.9537 383.01144 
L 132.284017 388.558584 
L 132.614334 386.462425 
L 132.944651 382.259814 
L 133.274968 395.430867 
L 133.605285 403.735332 
L 133.935603 387.843753 
L 134.26592 399.700541 
L 134.596237 404.294289 
L 134.926554 398.426087 
L 135.256871 387.720709 
L 135.587188 383.867453 
L 135.917505 402.670143 
L 136.247822 376.961158 
L 136.57814 384.510052 
L 136.908457 382.349315 
L 137.238774 384.520934 
L 137.569091 385.59014 
L 137.899408 388.008577 
L 138.229725 392.275615 
L 138.560042 406.833448 
L 138.890359 391.671635 
L 139.220677 397.824418 
L 139.550994 388.720408 
L 139.881311 398.928428 
L 140.211628 381.545838 
L 140.541945 378.818734 
L 140.872262 365.859249 
L 141.202579 377.00144 
L 141.532896 379.73922 
L 141.863214 381.398335 
L 142.193531 376.375752 
L 142.523848 388.850886 
L 143.184482 400.17949 
L 143.514799 396.240699 
L 143.845116 401.548132 
L 144.175433 412.440348 
L 144.505751 397.562239 
L 144.836068 394.552916 
L 145.166385 399.82277 
L 145.496702 390.600772 
L 145.827019 398.336306 
L 146.157336 398.581262 
L 146.81797 391.506022 
L 147.148288 393.698215 
L 147.478605 403.314473 
L 147.808922 381.397993 
L 148.139239 385.337953 
L 148.469556 397.446808 
L 148.799873 393.068411 
L 149.13019 396.434669 
L 149.460507 388.907412 
L 149.790825 397.819411 
L 150.121142 397.102888 
L 150.451459 391.4075 
L 150.781776 393.855477 
L 151.112093 390.705689 
L 151.44241 408.314385 
L 151.772727 394.423004 
L 152.103044 405.860735 
L 152.433362 389.813507 
L 152.763679 404.666314 
L 153.093996 406.935714 
L 153.424313 406.42599 
L 153.75463 388.737388 
L 154.084947 403.611229 
L 154.415264 394.386503 
L 154.745581 389.485998 
L 155.075899 388.097244 
L 155.406216 389.867211 
L 155.736533 372.096021 
L 156.06685 395.702333 
L 156.397167 384.05777 
L 157.057801 395.730877 
L 157.388118 399.888416 
L 157.718436 390.248527 
L 158.048753 388.398036 
L 158.37907 381.946859 
L 158.709387 399.781571 
L 159.039704 402.745946 
L 159.370021 390.853569 
L 159.700338 390.645907 
L 160.030655 413.986418 
L 160.360973 408.558393 
L 160.69129 412.732315 
L 161.021607 399.904331 
L 161.351924 418.158384 
L 161.682241 402.136033 
L 162.012558 402.381619 
L 162.342875 407.387893 
L 162.673192 410.363438 
L 163.00351 418.469589 
L 163.333827 412.660179 
L 163.664144 400.619444 
L 163.994461 403.700868 
L 164.324778 396.349312 
L 164.655095 393.512333 
L 164.985412 398.01148 
L 165.315729 393.46588 
L 165.646047 401.859265 
L 165.976364 381.145731 
L 166.636998 396.424108 
L 166.967315 393.153803 
L 167.297632 391.595223 
L 167.627949 388.545588 
L 168.288584 410.761088 
L 168.618901 394.022292 
L 169.609852 412.973724 
L 169.940169 406.301898 
L 170.270486 404.902865 
L 170.600803 415.30891 
L 170.931121 400.031869 
L 171.261438 393.177283 
L 171.591755 413.81423 
L 172.252389 392.57323 
L 172.582706 372.634607 
L 172.913023 388.968946 
L 173.24334 391.083164 
L 173.573658 390.117566 
L 173.903975 382.529559 
L 174.234292 385.072574 
L 174.564609 377.859607 
L 174.894926 354.077677 
L 175.225243 355.669715 
L 175.55556 379.000382 
L 175.885877 391.25139 
L 176.216195 381.497009 
L 176.546512 379.428216 
L 176.876829 358.599613 
L 177.207146 394.189386 
L 177.537463 369.959003 
L 177.86778 365.536446 
L 178.198097 377.278262 
L 178.858732 375.442428 
L 179.189049 387.265787 
L 179.519366 370.205389 
L 180.18 391.682666 
L 180.510317 386.781012 
L 180.840634 388.051038 
L 181.170951 383.100713 
L 181.501268 392.952661 
L 181.831586 371.326631 
L 182.161903 360.471244 
L 182.49222 331.402061 
L 183.152854 368.303885 
L 183.483171 375.976612 
L 183.813488 387.485777 
L 184.143805 358.274531 
L 184.474123 362.375745 
L 184.80444 343.342176 
L 185.134757 333.82822 
L 185.465074 358.226683 
L 185.795391 369.942744 
L 186.456025 382.524309 
L 186.786342 377.8061 
L 187.11666 367.404668 
L 187.446977 365.434558 
L 187.777294 383.286396 
L 188.107611 365.752049 
L 188.768245 375.860662 
L 189.098562 374.704376 
L 189.428879 378.374101 
L 189.759197 375.31928 
L 190.089514 369.287909 
L 190.419831 359.389595 
L 190.750148 342.893265 
L 191.080465 378.474764 
L 191.410782 369.950001 
L 191.741099 374.848508 
L 192.071416 373.125887 
L 192.401734 377.874282 
L 192.732051 375.626478 
L 193.062368 375.941402 
L 193.392685 367.102183 
L 193.723002 352.275064 
L 194.053319 353.895387 
L 194.713953 285.526203 
L 195.044271 330.689462 
L 195.704905 382.340394 
L 196.035222 376.057519 
L 196.365539 383.835689 
L 196.695856 382.738951 
L 197.026173 379.44507 
L 197.35649 366.730665 
L 197.686808 340.917719 
L 198.017125 335.450083 
L 198.347442 345.205628 
L 198.677759 371.87359 
L 199.008076 362.31739 
L 199.338393 346.104986 
L 199.66871 347.485042 
L 200.329345 387.046904 
L 200.659662 374.190639 
L 200.989979 382.504838 
L 201.98093 363.897827 
L 202.641564 377.281998 
L 202.971882 362.776378 
L 203.302199 380.611225 
L 203.632516 385.65928 
L 203.962833 388.742639 
L 204.29315 384.76639 
L 204.623467 365.253175 
L 204.953784 388.550915 
L 205.284101 397.326885 
L 205.614419 388.129717 
L 205.944736 374.704425 
L 206.275053 377.010272 
L 206.60537 382.451558 
L 206.935687 381.680317 
L 207.266004 394.637302 
L 207.596321 389.734337 
L 207.926638 383.068002 
L 208.256956 380.379217 
L 208.587273 397.575758 
L 208.91759 378.584044 
L 209.247907 377.425427 
L 209.578224 398.332156 
L 209.908541 387.200124 
L 210.238858 386.664047 
L 210.569175 378.118608 
L 210.899493 386.173935 
L 211.22981 369.030159 
L 211.560127 399.1642 
L 211.890444 371.707919 
L 212.220761 329.630234 
L 212.551078 314.476163 
L 212.881395 361.422767 
L 213.211712 382.227246 
L 213.54203 388.241095 
L 213.872347 379.220413 
L 214.202664 393.017704 
L 214.532981 392.741618 
L 214.863298 394.317859 
L 215.193615 387.914451 
L 215.523932 386.752961 
L 216.184567 382.945118 
L 216.514884 387.216151 
L 216.845201 369.137533 
L 217.175518 386.085632 
L 217.505835 394.110662 
L 217.836152 398.806315 
L 218.166469 414.088415 
L 218.496786 396.664512 
L 218.827104 392.310284 
L 219.157421 398.506715 
L 219.487738 392.514158 
L 219.818055 380.79854 
L 220.148372 387.507356 
L 220.478689 380.33039 
L 220.809006 392.58218 
L 221.139323 390.434205 
L 221.799958 399.761645 
L 222.130275 405.193591 
L 222.460592 395.021996 
L 222.790909 395.785277 
L 223.121226 407.343264 
L 223.78186 391.165428 
L 224.112178 400.888073 
L 224.442495 385.045495 
L 224.772812 384.156966 
L 225.103129 387.05872 
L 225.433446 363.428697 
L 225.763763 385.1572 
L 226.09408 383.849994 
L 226.424397 399.002309 
L 226.754715 399.605317 
L 227.085032 397.337351 
L 227.415349 401.700965 
L 227.745666 397.454728 
L 228.4063 375.56452 
L 229.066934 392.423013 
L 229.397252 409.659018 
L 229.727569 399.472284 
L 230.057886 379.207661 
L 230.388203 382.950493 
L 230.71852 390.272397 
L 231.048837 405.157237 
L 231.379154 395.567313 
L 231.709471 393.822863 
L 232.039789 409.433166 
L 232.370106 398.607352 
L 232.700423 394.119117 
L 233.03074 387.230815 
L 233.361057 401.879685 
L 233.691374 387.907271 
L 234.352008 398.065842 
L 234.682326 403.436967 
L 235.012643 400.516777 
L 235.34296 406.10958 
L 235.673277 398.561021 
L 236.003594 411.354681 
L 236.333911 407.330985 
L 236.664228 396.101852 
L 236.994545 395.273549 
L 237.324863 406.029406 
L 237.65518 404.136764 
L 237.985497 391.999645 
L 238.315814 395.897649 
L 238.646131 392.44401 
L 238.976448 396.403998 
L 239.306765 396.421216 
L 239.637082 393.427114 
L 239.9674 402.36343 
L 240.297717 407.514987 
L 240.628034 403.345116 
L 240.958351 397.359423 
L 241.288668 412.080355 
L 241.618985 391.162011 
L 241.949302 403.231632 
L 242.279619 409.487336 
L 242.609937 412.89382 
L 242.940254 413.873088 
L 243.270571 413.03691 
L 243.600888 414.656947 
L 243.931205 407.317505 
L 244.261522 408.754494 
L 244.922156 389.313686 
L 245.252474 400.742767 
L 245.582791 404.318403 
L 245.913108 399.432614 
L 246.243425 400.394086 
L 246.573742 423.726537 
L 246.904059 402.104534 
L 247.234376 405.489108 
L 247.564693 420.639915 
L 247.895011 420.764876 
L 248.555645 393.12399 
L 248.885962 400.126087 
L 249.216279 420.372032 
L 249.546596 407.24481 
L 249.876913 401.318992 
L 250.20723 400.499361 
L 250.537548 398.621299 
L 250.867865 411.439941 
L 251.198182 400.833798 
L 251.528499 408.578808 
L 251.858816 396.34156 
L 252.189133 405.085725 
L 252.51945 401.116951 
L 252.849767 390.943203 
L 253.180085 395.307088 
L 253.510402 403.127284 
L 253.840719 396.483886 
L 254.171036 409.982131 
L 254.501353 407.223167 
L 254.83167 397.838013 
L 255.161987 397.081228 
L 255.492304 384.356608 
L 255.822622 391.229025 
L 256.152939 393.617503 
L 256.483256 400.90124 
L 257.14389 395.79321 
L 257.474207 404.640956 
L 257.804524 406.705701 
L 258.134841 400.684849 
L 258.465159 403.496279 
L 258.795476 398.799126 
L 259.45611 386.510225 
L 259.786427 394.871873 
L 260.116744 392.607013 
L 260.447061 394.384903 
L 261.76833 415.184154 
L 262.098647 406.131053 
L 262.428964 402.183581 
L 263.089598 405.867282 
L 263.419915 403.215954 
L 263.750233 394.677557 
L 264.08055 402.629893 
L 264.410867 394.935291 
L 264.741184 394.242213 
L 265.401818 403.297465 
L 265.732135 393.783399 
L 266.062452 393.545953 
L 266.39277 369.660355 
L 266.723087 387.950695 
L 267.053404 380.796891 
L 267.383721 400.290141 
L 267.714038 398.447196 
L 268.044355 409.819351 
L 268.374672 385.238652 
L 268.704989 383.17548 
L 269.035307 399.072661 
L 269.365624 390.723215 
L 269.695941 409.437341 
L 270.026258 395.358526 
L 270.356575 395.743194 
L 270.686892 385.505771 
L 271.017209 402.607971 
L 271.347526 390.321545 
L 271.677844 408.733166 
L 272.008161 389.926564 
L 272.668795 406.166522 
L 272.999112 401.935637 
L 273.329429 417.223479 
L 273.659746 407.56502 
L 273.990063 408.720229 
L 274.320381 404.285401 
L 274.650698 384.245759 
L 274.981015 391.318317 
L 275.311332 415.046757 
L 275.641649 402.818119 
L 275.971966 408.73363 
L 276.6326 391.771797 
L 276.962918 402.630391 
L 277.293235 408.390281 
L 277.623552 421.779654 
L 277.953869 411.445044 
L 278.284186 412.608868 
L 278.614503 402.983683 
L 278.94482 410.289355 
L 279.275137 401.983464 
L 279.605455 403.505939 
L 279.935772 407.6512 
L 280.596406 402.185087 
L 280.926723 392.718851 
L 281.25704 393.597726 
L 281.587357 405.779823 
L 281.917674 396.806968 
L 282.247992 413.770116 
L 282.578309 405.798544 
L 282.908626 407.84887 
L 283.238943 416.913445 
L 283.56926 411.436462 
L 283.899577 400.070009 
L 284.229894 413.680801 
L 284.560211 406.084276 
L 284.890529 418.711177 
L 285.220846 412.780179 
L 285.551163 415.784847 
L 285.88148 401.211818 
L 286.211797 415.363488 
L 286.542114 405.354805 
L 286.872431 404.801408 
L 287.533066 408.726708 
L 287.863383 405.002323 
L 288.1937 403.909916 
L 288.524017 405.846635 
L 288.854334 430.873797 
L 289.184651 408.307617 
L 289.514968 401.264107 
L 289.845285 400.119453 
L 290.175603 411.867544 
L 290.50592 398.620656 
L 291.166554 415.846717 
L 291.827188 388.863744 
L 292.157505 397.95123 
L 292.487822 401.242287 
L 292.81814 399.592131 
L 293.148457 408.814845 
L 293.478774 408.544348 
L 293.809091 389.986167 
L 294.139408 399.343858 
L 294.469725 388.586754 
L 294.800042 403.187467 
L 295.130359 407.052427 
L 295.460677 401.738582 
L 295.790994 407.939188 
L 296.451628 387.67869 
L 296.781945 399.548979 
L 297.112262 386.03205 
L 297.442579 396.092511 
L 297.772896 400.376519 
L 298.103214 399.377528 
L 298.433531 401.78866 
L 298.763848 406.762121 
L 299.094165 402.11356 
L 299.424482 404.436227 
L 299.754799 385.163646 
L 300.085116 399.190007 
L 300.415433 382.884129 
L 300.745751 378.732706 
L 301.076068 394.51284 
L 301.406385 383.820455 
L 301.736702 384.549463 
L 302.067019 374.57102 
L 302.397336 378.799137 
L 302.727653 385.259512 
L 303.05797 382.45139 
L 303.388288 387.821058 
L 303.718605 399.330912 
L 304.048922 381.041849 
L 304.379239 401.430105 
L 304.709556 386.647861 
L 305.039873 400.750956 
L 306.030825 375.988501 
L 306.691459 399.184255 
L 307.021776 393.378533 
L 307.352093 394.082182 
L 307.68241 389.809594 
L 308.012727 402.750341 
L 308.343044 391.253842 
L 308.673362 406.64566 
L 309.003679 390.297345 
L 309.333996 390.065995 
L 309.664313 398.642526 
L 310.324947 384.686492 
L 310.655264 390.711892 
L 310.985581 391.308165 
L 311.315899 398.392918 
L 311.646216 402.1653 
L 311.976533 388.317858 
L 312.30685 395.316526 
L 312.637167 415.129058 
L 312.967484 415.899221 
L 313.297801 410.553085 
L 313.628118 408.165909 
L 313.958436 389.845545 
L 314.288753 415.37652 
L 314.61907 415.066616 
L 314.949387 401.388961 
L 315.279704 417.139815 
L 315.610021 396.080111 
L 315.940338 409.488237 
L 316.270655 413.149533 
L 316.600973 404.366905 
L 316.93129 401.998428 
L 317.261607 408.263946 
L 317.591924 404.425865 
L 317.922241 414.785441 
L 318.252558 398.960908 
L 318.582875 409.25361 
L 318.913192 408.222106 
L 319.24351 406.303752 
L 319.573827 405.441003 
L 319.904144 394.820957 
L 320.234461 408.985217 
L 320.564778 395.352141 
L 320.895095 390.388527 
L 321.225412 398.773803 
L 321.555729 393.725916 
L 321.886047 399.699194 
L 322.216364 390.9211 
L 322.546681 402.549206 
L 322.876998 405.066432 
L 323.207315 398.947052 
L 323.537632 385.01115 
L 323.867949 404.484489 
L 324.198266 402.388942 
L 324.528584 391.696093 
L 324.858901 387.700455 
L 325.189218 405.698313 
L 325.519535 397.449539 
L 325.849852 399.699839 
L 326.180169 405.347995 
L 326.510486 391.064483 
L 326.840803 397.193623 
L 327.171121 406.186646 
L 327.501438 405.0508 
L 327.831755 399.695706 
L 328.162072 405.143822 
L 328.492389 415.413045 
L 328.822706 400.055269 
L 329.153023 401.498577 
L 329.48334 400.882866 
L 329.813658 418.753239 
L 330.143975 409.505072 
L 330.474292 406.169077 
L 330.804609 411.582385 
L 331.134926 401.882584 
L 331.465243 400.161344 
L 331.79556 406.18526 
L 332.125877 408.479324 
L 332.456195 407.658314 
L 332.786512 410.062881 
L 333.116829 395.255698 
L 333.447146 402.133557 
L 333.777463 403.535488 
L 334.438097 389.187759 
L 334.768414 406.591739 
L 335.098732 410.289906 
L 335.429049 418.991271 
L 335.759366 416.454466 
L 336.089683 408.47408 
L 336.42 408.324964 
L 336.750317 395.933064 
L 337.080634 398.308191 
L 337.410951 402.441789 
L 337.741268 386.933662 
L 338.071586 393.658143 
L 338.401903 382.279866 
L 338.73222 395.633685 
L 339.062537 395.056868 
L 339.392854 386.593395 
L 339.723171 416.525146 
L 340.053488 397.691436 
L 340.383805 390.081286 
L 340.714123 388.433683 
L 341.04444 401.346547 
L 341.374757 395.770439 
L 341.705074 410.345168 
L 342.035391 416.135785 
L 342.365708 414.107743 
L 342.696025 410.082178 
L 343.026342 403.365166 
L 343.35666 404.824213 
L 343.686977 409.298202 
L 344.017294 402.782956 
L 344.347611 407.983826 
L 344.677928 392.714151 
L 345.008245 405.112933 
L 345.338562 387.598976 
L 345.668879 389.389794 
L 345.999197 402.942247 
L 346.329514 396.131907 
L 346.659831 411.741927 
L 346.990148 404.907282 
L 347.320465 418.406468 
L 347.650782 382.937664 
L 347.981099 403.424289 
L 348.311416 391.966666 
L 348.641734 404.281824 
L 348.972051 395.461988 
L 349.302368 383.471393 
L 349.632685 398.727669 
L 349.963002 398.411668 
L 350.623636 402.208167 
L 350.953953 408.103662 
L 351.284271 398.901389 
L 351.614588 403.557535 
L 351.944905 387.994724 
L 352.275222 404.350953 
L 352.935856 363.728096 
L 353.266173 384.151252 
L 353.59649 389.633368 
L 353.926808 388.465249 
L 354.257125 395.929539 
L 354.587442 400.165403 
L 354.917759 388.987944 
L 355.248076 394.478081 
L 355.578393 391.28595 
L 355.90871 372.283329 
L 356.239027 365.174069 
L 356.569345 377.305312 
L 356.899662 380.659972 
L 357.229979 382.098417 
L 357.560296 376.650629 
L 357.890613 393.163697 
L 358.22093 380.707822 
L 358.551247 393.372775 
L 358.881564 393.539536 
L 359.211882 395.845881 
L 359.542199 371.684365 
L 359.872516 397.300243 
L 360.202833 392.727732 
L 360.53315 378.908212 
L 360.863467 384.5269 
L 361.193784 396.31202 
L 361.524101 396.501235 
L 361.854419 393.701119 
L 362.184736 394.555181 
L 362.515053 402.116125 
L 363.506004 387.418462 
L 363.836321 399.045219 
L 364.166638 379.289606 
L 364.496956 379.409751 
L 364.827273 391.499581 
L 365.15759 398.518773 
L 365.487907 392.7428 
L 365.818224 393.222334 
L 366.148541 398.484995 
L 366.809175 379.154463 
L 367.139493 384.433397 
L 367.46981 385.341173 
L 367.800127 374.445723 
L 368.460761 286.357491 
L 369.121395 370.053692 
L 369.451712 390.107579 
L 369.78203 368.883289 
L 370.112347 384.219241 
L 370.442664 367.85151 
L 370.772981 386.962732 
L 371.433615 374.179471 
L 371.763932 373.55081 
L 372.094249 368.611502 
L 372.424567 356.944602 
L 372.754884 350.327163 
L 373.085201 364.48094 
L 373.415518 368.92068 
L 373.745835 383.534523 
L 374.406469 353.045146 
L 374.736786 378.159365 
L 375.067104 386.656555 
L 375.397421 368.951358 
L 375.727738 387.34927 
L 376.058055 389.74257 
L 376.388372 366.245881 
L 376.718689 361.008912 
L 377.049006 361.589832 
L 377.379323 376.832046 
L 377.709641 376.266935 
L 378.039958 375.22932 
L 378.370275 387.105284 
L 378.700592 385.576811 
L 379.030909 392.539601 
L 379.361226 380.413375 
L 379.691543 385.107973 
L 380.02186 377.631831 
L 380.352178 372.798429 
L 380.682495 373.92354 
L 381.012812 394.197268 
L 381.343129 370.452402 
L 381.673446 384.146076 
L 382.003763 382.867759 
L 382.33408 378.344117 
L 382.664397 385.002467 
L 382.994715 363.702901 
L 383.325032 332.925415 
L 383.655349 386.46027 
L 383.985666 372.26858 
L 384.315983 372.687369 
L 384.6463 390.982385 
L 384.976617 387.406208 
L 385.967569 372.522446 
L 386.297886 362.973027 
L 386.628203 361.382218 
L 386.95852 362.697854 
L 387.288837 378.856331 
L 387.619154 384.27369 
L 387.949471 394.033022 
L 388.279789 395.027272 
L 388.610106 373.561636 
L 388.940423 387.278899 
L 389.27074 371.53511 
L 389.601057 378.480556 
L 389.931374 382.358495 
L 390.261691 375.839344 
L 390.592008 389.812169 
L 390.922326 384.804535 
L 391.252643 383.257566 
L 391.58296 375.81296 
L 391.913277 371.767096 
L 392.243594 381.343901 
L 392.573911 385.672152 
L 392.904228 379.198975 
L 393.234545 384.754337 
L 393.564863 379.54633 
L 393.89518 379.910181 
L 394.225497 374.632885 
L 394.555814 366.765946 
L 394.886131 394.839268 
L 395.216448 398.015192 
L 395.546765 388.163179 
L 396.2074 390.009854 
L 396.537717 390.016671 
L 396.868034 384.428274 
L 397.198351 383.563501 
L 397.528668 389.876071 
L 397.858985 386.602945 
L 398.189302 373.00114 
L 398.519619 348.474078 
L 398.849937 334.49722 
L 399.180254 383.052006 
L 399.510571 397.595126 
L 399.840888 388.918966 
L 400.171205 401.471321 
L 400.831839 372.192692 
L 401.162156 384.114465 
L 401.492474 380.634595 
L 401.822791 382.798748 
L 402.153108 381.600608 
L 402.483425 381.041365 
L 402.813742 385.747992 
L 403.474376 400.189001 
L 403.804693 393.035388 
L 404.135011 370.002756 
L 404.465328 403.328094 
L 404.795645 401.494229 
L 405.456279 407.699742 
L 405.786596 409.886436 
L 406.116913 394.952899 
L 406.44723 403.125734 
L 406.777548 406.908352 
L 407.107865 397.584627 
L 407.438182 384.684179 
L 407.768499 401.412901 
L 408.098816 391.673559 
L 408.429133 391.628627 
L 408.75945 413.185758 
L 409.089767 394.17005 
L 409.420085 401.516718 
L 409.750402 392.690397 
L 410.080719 400.813423 
L 410.411036 397.773176 
L 410.741353 403.159965 
L 411.07167 416.571919 
L 411.401987 398.44042 
L 411.732304 396.103495 
L 412.062622 384.9139 
L 412.392939 403.174175 
L 412.723256 386.474805 
L 413.714207 395.995525 
L 414.044524 404.801217 
L 414.374841 398.835966 
L 414.705159 397.848779 
L 415.035476 401.113953 
L 415.365793 398.050247 
L 415.69611 409.080576 
L 416.026427 399.412001 
L 416.356744 399.872494 
L 416.687061 391.720368 
L 417.017378 391.528026 
L 417.347696 401.492212 
L 417.678013 404.384912 
L 418.00833 399.676605 
L 418.338647 416.41778 
L 418.668964 401.550707 
L 418.999281 404.247084 
L 419.329598 410.407851 
L 419.659915 402.619229 
L 419.990233 391.758443 
L 420.32055 398.616291 
L 420.650867 391.893905 
L 420.981184 401.157483 
L 421.311501 405.172593 
L 421.641818 389.746815 
L 421.972135 392.444753 
L 422.302452 402.990698 
L 422.63277 396.048978 
L 422.963087 378.577711 
L 423.293404 402.071906 
L 423.623721 395.97528 
L 423.954038 412.673559 
L 424.284355 408.688659 
L 424.614672 389.69869 
L 424.944989 389.605351 
L 425.275307 396.679238 
L 425.605624 388.444007 
L 425.935941 400.46276 
L 426.266258 401.449475 
L 426.596575 394.956298 
L 426.926892 403.345774 
L 427.257209 386.222596 
L 427.917844 399.074747 
L 428.248161 400.159548 
L 428.578478 397.888592 
L 428.908795 398.887778 
L 429.239112 385.196204 
L 429.569429 387.709052 
L 429.899746 393.865522 
L 430.230063 389.601171 
L 430.560381 403.358978 
L 430.890698 384.524011 
L 431.221015 390.845386 
L 431.551332 389.316423 
L 431.881649 392.949665 
L 432.211966 401.638038 
L 432.542283 401.558611 
L 432.8726 411.693127 
L 433.202918 411.069154 
L 433.533235 412.303215 
L 433.863552 403.017428 
L 434.193869 406.86563 
L 434.524186 413.266886 
L 434.854503 400.839556 
L 435.18482 392.917545 
L 435.515137 403.907433 
L 435.845455 396.822263 
L 435.845455 396.822263 
" style="fill:none;stroke:#2ca02c;stroke-linecap:square;stroke-width:1.5;"/>
   </g>
   <g id="patch_8">
    <path d="M 63 438.141176 
L 63 278.258824 
" style="fill:none;stroke:#000000;stroke-linecap:square;stroke-linejoin:miter;stroke-width:0.8;"/>
   </g>
   <g id="patch_9">
    <path d="M 453.6 438.141176 
L 453.6 278.258824 
" style="fill:none;stroke:#000000;stroke-linecap:square;stroke-linejoin:miter;stroke-width:0.8;"/>
   </g>
   <g id="patch_10">
    <path d="M 63 438.141176 
L 453.6 438.141176 
" style="fill:none;stroke:#000000;stroke-linecap:square;stroke-linejoin:miter;stroke-width:0.8;"/>
   </g>
   <g id="patch_11">
    <path d="M 63 278.258824 
L 453.6 278.258824 
" style="fill:none;stroke:#000000;stroke-linecap:square;stroke-linejoin:miter;stroke-width:0.8;"/>
   </g>
  </g>
  <g id="axes_3">
   <g id="patch_12">
    <path d="M 63 630 
L 453.6 630 
L 453.6 470.117647 
L 63 470.117647 
z
" style="fill:#ffffff;"/>
   </g>
   <g id="patch_13">
    <path clip-path="url(#p270fca8785)" d="M 358.797427 630 
L 368.84717 630 
L 368.84717 603.850452 
L 358.797427 603.850452 
z
" style="fill:#1f77b4;"/>
   </g>
   <g id="patch_14">
    <path clip-path="url(#p270fca8785)" d="M 392.296569 630 
L 402.346312 630 
L 402.346312 606.232254 
L 392.296569 606.232254 
z
" style="fill:#1f77b4;"/>
   </g>
   <g id="patch_15">
    <path clip-path="url(#p270fca8785)" d="M 425.795712 630 
L 435.845455 630 
L 435.845455 511.419861 
L 425.795712 511.419861 
z
" style="fill:#1f77b4;"/>
   </g>
   <g id="patch_16">
    <path clip-path="url(#p270fca8785)" d="M 80.754545 630 
L 90.804288 630 
L 90.804288 629.998738 
L 80.754545 629.998738 
z
" style="fill:#ff7f0e;"/>
   </g>
   <g id="patch_17">
    <path clip-path="url(#p270fca8785)" d="M 114.253688 630 
L 124.303431 630 
L 124.303431 630 
L 114.253688 630 
z
" style="fill:#ff7f0e;"/>
   </g>
   <g id="patch_18">
    <path clip-path="url(#p270fca8785)" d="M 147.75283 630 
L 157.802573 630 
L 157.802573 629.986897 
L 147.75283 629.986897 
z
" style="fill:#ff7f0e;"/>
   </g>
   <g id="patch_19">
    <path clip-path="url(#p270fca8785)" d="M 181.251973 630 
L 191.301715 630 
L 191.301715 630 
L 181.251973 630 
z
" style="fill:#ff7f0e;"/>
   </g>
   <g id="patch_20">
    <path clip-path="url(#p270fca8785)" d="M 214.751115 630 
L 224.800858 630 
L 224.800858 629.863956 
L 214.751115 629.863956 
z
" style="fill:#ff7f0e;"/>
   </g>
   <g id="patch_21">
    <path clip-path="url(#p270fca8785)" d="M 248.250257 630 
L 258.3 630 
L 258.3 630 
L 248.250257 630 
z
" style="fill:#ff7f0e;"/>
   </g>
   <g id="patch_22">
    <path clip-path="url(#p270fca8785)" d="M 281.7494 630 
L 291.799142 630 
L 291.799142 628.587497 
L 281.7494 628.587497 
z
" style="fill:#ff7f0e;"/>
   </g>
   <g id="patch_23">
    <path clip-path="url(#p270fca8785)" d="M 315.248542 630 
L 325.298285 630 
L 325.298285 630 
L 315.248542 630 
z
" style="fill:#ff7f0e;"/>
   </g>
   <g id="patch_24">
    <path clip-path="url(#p270fca8785)" d="M 348.747684 630 
L 358.797427 630 
L 358.797427 615.334386 
L 348.747684 615.334386 
z
" style="fill:#ff7f0e;"/>
   </g>
   <g id="patch_25">
    <path clip-path="url(#p270fca8785)" d="M 382.246827 630 
L 392.296569 630 
L 392.296569 630 
L 382.246827 630 
z
" style="fill:#ff7f0e;"/>
   </g>
   <g id="patch_26">
    <path clip-path="url(#p270fca8785)" d="M 415.745969 630 
L 425.795712 630 
L 425.795712 477.731092 
L 415.745969 477.731092 
z
" style="fill:#ff7f0e;"/>
   </g>
   <g id="matplotlib.axis_5">
    <g id="xtick_11">
     <g id="line2d_22">
      <g>
       <use style="stroke:#000000;stroke-width:0.8;" x="90.804288" xlink:href="#m3e3226bae6" y="630"/>
      </g>
     </g>
     <g id="text_22">
      <!-- 1 -->
      <g transform="translate(87.623038 644.598438)scale(0.1 -0.1)">
       <use xlink:href="#DejaVuSans-49"/>
      </g>
     </g>
    </g>
    <g id="xtick_12">
     <g id="line2d_23">
      <g>
       <use style="stroke:#000000;stroke-width:0.8;" x="124.303431" xlink:href="#m3e3226bae6" y="630"/>
      </g>
     </g>
     <g id="text_23">
      <!-- 2 -->
      <g transform="translate(121.122181 644.598438)scale(0.1 -0.1)">
       <use xlink:href="#DejaVuSans-50"/>
      </g>
     </g>
    </g>
    <g id="xtick_13">
     <g id="line2d_24">
      <g>
       <use style="stroke:#000000;stroke-width:0.8;" x="157.802573" xlink:href="#m3e3226bae6" y="630"/>
      </g>
     </g>
     <g id="text_24">
      <!-- 3 -->
      <g transform="translate(154.621323 644.598438)scale(0.1 -0.1)">
       <use xlink:href="#DejaVuSans-51"/>
      </g>
     </g>
    </g>
    <g id="xtick_14">
     <g id="line2d_25">
      <g>
       <use style="stroke:#000000;stroke-width:0.8;" x="191.301715" xlink:href="#m3e3226bae6" y="630"/>
      </g>
     </g>
     <g id="text_25">
      <!-- 4 -->
      <g transform="translate(188.120465 644.598438)scale(0.1 -0.1)">
       <use xlink:href="#DejaVuSans-52"/>
      </g>
     </g>
    </g>
    <g id="xtick_15">
     <g id="line2d_26">
      <g>
       <use style="stroke:#000000;stroke-width:0.8;" x="224.800858" xlink:href="#m3e3226bae6" y="630"/>
      </g>
     </g>
     <g id="text_26">
      <!-- 5 -->
      <g transform="translate(221.619608 644.598438)scale(0.1 -0.1)">
       <use xlink:href="#DejaVuSans-53"/>
      </g>
     </g>
    </g>
    <g id="xtick_16">
     <g id="line2d_27">
      <g>
       <use style="stroke:#000000;stroke-width:0.8;" x="258.3" xlink:href="#m3e3226bae6" y="630"/>
      </g>
     </g>
     <g id="text_27">
      <!-- 6 -->
      <g transform="translate(255.11875 644.598438)scale(0.1 -0.1)">
       <use xlink:href="#DejaVuSans-54"/>
      </g>
     </g>
    </g>
    <g id="xtick_17">
     <g id="line2d_28">
      <g>
       <use style="stroke:#000000;stroke-width:0.8;" x="291.799142" xlink:href="#m3e3226bae6" y="630"/>
      </g>
     </g>
     <g id="text_28">
      <!-- 7 -->
      <g transform="translate(288.617892 644.598438)scale(0.1 -0.1)">
       <use xlink:href="#DejaVuSans-55"/>
      </g>
     </g>
    </g>
    <g id="xtick_18">
     <g id="line2d_29">
      <g>
       <use style="stroke:#000000;stroke-width:0.8;" x="325.298285" xlink:href="#m3e3226bae6" y="630"/>
      </g>
     </g>
     <g id="text_29">
      <!-- 8 -->
      <g transform="translate(322.117035 644.598438)scale(0.1 -0.1)">
       <use xlink:href="#DejaVuSans-56"/>
      </g>
     </g>
    </g>
    <g id="xtick_19">
     <g id="line2d_30">
      <g>
       <use style="stroke:#000000;stroke-width:0.8;" x="358.797427" xlink:href="#m3e3226bae6" y="630"/>
      </g>
     </g>
     <g id="text_30">
      <!-- 9 -->
      <defs>
       <path d="M 10.984375 1.515625 
L 10.984375 10.5 
Q 14.703125 8.734375 18.5 7.8125 
Q 22.3125 6.890625 25.984375 6.890625 
Q 35.75 6.890625 40.890625 13.453125 
Q 46.046875 20.015625 46.78125 33.40625 
Q 43.953125 29.203125 39.59375 26.953125 
Q 35.25 24.703125 29.984375 24.703125 
Q 19.046875 24.703125 12.671875 31.3125 
Q 6.296875 37.9375 6.296875 49.421875 
Q 6.296875 60.640625 12.9375 67.421875 
Q 19.578125 74.21875 30.609375 74.21875 
Q 43.265625 74.21875 49.921875 64.515625 
Q 56.59375 54.828125 56.59375 36.375 
Q 56.59375 19.140625 48.40625 8.859375 
Q 40.234375 -1.421875 26.421875 -1.421875 
Q 22.703125 -1.421875 18.890625 -0.6875 
Q 15.09375 0.046875 10.984375 1.515625 
z
M 30.609375 32.421875 
Q 37.25 32.421875 41.125 36.953125 
Q 45.015625 41.5 45.015625 49.421875 
Q 45.015625 57.28125 41.125 61.84375 
Q 37.25 66.40625 30.609375 66.40625 
Q 23.96875 66.40625 20.09375 61.84375 
Q 16.21875 57.28125 16.21875 49.421875 
Q 16.21875 41.5 20.09375 36.953125 
Q 23.96875 32.421875 30.609375 32.421875 
z
" id="DejaVuSans-57"/>
      </defs>
      <g transform="translate(355.616177 644.598438)scale(0.1 -0.1)">
       <use xlink:href="#DejaVuSans-57"/>
      </g>
     </g>
    </g>
    <g id="xtick_20">
     <g id="line2d_31">
      <g>
       <use style="stroke:#000000;stroke-width:0.8;" x="392.296569" xlink:href="#m3e3226bae6" y="630"/>
      </g>
     </g>
     <g id="text_31">
      <!-- 10 -->
      <g transform="translate(385.934069 644.598438)scale(0.1 -0.1)">
       <use xlink:href="#DejaVuSans-49"/>
       <use x="63.623047" xlink:href="#DejaVuSans-48"/>
      </g>
     </g>
    </g>
    <g id="xtick_21">
     <g id="line2d_32">
      <g>
       <use style="stroke:#000000;stroke-width:0.8;" x="425.795712" xlink:href="#m3e3226bae6" y="630"/>
      </g>
     </g>
     <g id="text_32">
      <!-- 11 -->
      <g transform="translate(419.433212 644.598438)scale(0.1 -0.1)">
       <use xlink:href="#DejaVuSans-49"/>
       <use x="63.623047" xlink:href="#DejaVuSans-49"/>
      </g>
     </g>
    </g>
   </g>
   <g id="matplotlib.axis_6">
    <g id="ytick_11">
     <g id="line2d_33">
      <g>
       <use style="stroke:#000000;stroke-width:0.8;" x="63" xlink:href="#m2e9bdbf186" y="630"/>
      </g>
     </g>
     <g id="text_33">
      <!-- 0.00 -->
      <g transform="translate(33.734375 633.799219)scale(0.1 -0.1)">
       <use xlink:href="#DejaVuSans-48"/>
       <use x="63.623047" xlink:href="#DejaVuSans-46"/>
       <use x="95.410156" xlink:href="#DejaVuSans-48"/>
       <use x="159.033203" xlink:href="#DejaVuSans-48"/>
      </g>
     </g>
    </g>
    <g id="ytick_12">
     <g id="line2d_34">
      <g>
       <use style="stroke:#000000;stroke-width:0.8;" x="63" xlink:href="#m2e9bdbf186" y="587.462625"/>
      </g>
     </g>
     <g id="text_34">
      <!-- 0.05 -->
      <g transform="translate(33.734375 591.261843)scale(0.1 -0.1)">
       <use xlink:href="#DejaVuSans-48"/>
       <use x="63.623047" xlink:href="#DejaVuSans-46"/>
       <use x="95.410156" xlink:href="#DejaVuSans-48"/>
       <use x="159.033203" xlink:href="#DejaVuSans-53"/>
      </g>
     </g>
    </g>
    <g id="ytick_13">
     <g id="line2d_35">
      <g>
       <use style="stroke:#000000;stroke-width:0.8;" x="63" xlink:href="#m2e9bdbf186" y="544.925249"/>
      </g>
     </g>
     <g id="text_35">
      <!-- 0.10 -->
      <g transform="translate(33.734375 548.724468)scale(0.1 -0.1)">
       <use xlink:href="#DejaVuSans-48"/>
       <use x="63.623047" xlink:href="#DejaVuSans-46"/>
       <use x="95.410156" xlink:href="#DejaVuSans-49"/>
       <use x="159.033203" xlink:href="#DejaVuSans-48"/>
      </g>
     </g>
    </g>
    <g id="ytick_14">
     <g id="line2d_36">
      <g>
       <use style="stroke:#000000;stroke-width:0.8;" x="63" xlink:href="#m2e9bdbf186" y="502.387874"/>
      </g>
     </g>
     <g id="text_36">
      <!-- 0.15 -->
      <g transform="translate(33.734375 506.187093)scale(0.1 -0.1)">
       <use xlink:href="#DejaVuSans-48"/>
       <use x="63.623047" xlink:href="#DejaVuSans-46"/>
       <use x="95.410156" xlink:href="#DejaVuSans-49"/>
       <use x="159.033203" xlink:href="#DejaVuSans-53"/>
      </g>
     </g>
    </g>
    <g id="text_37">
     <!-- $\langle n \rangle$ -->
     <g transform="translate(27.654688 557.158824)rotate(-90)scale(0.1 -0.1)">
      <use transform="translate(0 0.125)" xlink:href="#DejaVuSans-10216"/>
      <use transform="translate(39.013672 0.125)" xlink:href="#DejaVuSans-Oblique-110"/>
      <use transform="translate(102.392578 0.125)" xlink:href="#DejaVuSans-10217"/>
     </g>
    </g>
   </g>
   <g id="patch_27">
    <path d="M 63 630 
L 63 470.117647 
" style="fill:none;stroke:#000000;stroke-linecap:square;stroke-linejoin:miter;stroke-width:0.8;"/>
   </g>
   <g id="patch_28">
    <path d="M 453.6 630 
L 453.6 470.117647 
" style="fill:none;stroke:#000000;stroke-linecap:square;stroke-linejoin:miter;stroke-width:0.8;"/>
   </g>
   <g id="patch_29">
    <path d="M 63 630 
L 453.6 630 
" style="fill:none;stroke:#000000;stroke-linecap:square;stroke-linejoin:miter;stroke-width:0.8;"/>
   </g>
   <g id="patch_30">
    <path d="M 63 470.117647 
L 453.6 470.117647 
" style="fill:none;stroke:#000000;stroke-linecap:square;stroke-linejoin:miter;stroke-width:0.8;"/>
   </g>
  </g>
  <g id="axes_4">
   <g id="matplotlib.axis_7">
    <g id="ytick_15">
     <g id="line2d_37">
      <defs>
       <path d="M 0 0 
L 3.5 0 
" id="m67349632a4" style="stroke:#000000;stroke-width:0.8;"/>
      </defs>
      <g>
       <use style="stroke:#000000;stroke-width:0.8;" x="453.6" xlink:href="#m67349632a4" y="417.267791"/>
      </g>
     </g>
     <g id="text_38">
      <!-- 0.05 -->
      <defs>
       <path d="M 10.59375 35.5 
L 73.1875 35.5 
L 73.1875 27.203125 
L 10.59375 27.203125 
z
" id="DejaVuSans-8722"/>
      </defs>
      <g transform="translate(460.6 421.067009)scale(0.1 -0.1)">
       <use xlink:href="#DejaVuSans-8722"/>
       <use x="83.789062" xlink:href="#DejaVuSans-48"/>
       <use x="147.412109" xlink:href="#DejaVuSans-46"/>
       <use x="179.199219" xlink:href="#DejaVuSans-48"/>
       <use x="242.822266" xlink:href="#DejaVuSans-53"/>
      </g>
     </g>
    </g>
    <g id="ytick_16">
     <g id="line2d_38">
      <g>
       <use style="stroke:#000000;stroke-width:0.8;" x="453.6" xlink:href="#m67349632a4" y="381.728961"/>
      </g>
     </g>
     <g id="text_39">
      <!-- 0.00 -->
      <g transform="translate(460.6 385.528179)scale(0.1 -0.1)">
       <use xlink:href="#DejaVuSans-48"/>
       <use x="63.623047" xlink:href="#DejaVuSans-46"/>
       <use x="95.410156" xlink:href="#DejaVuSans-48"/>
       <use x="159.033203" xlink:href="#DejaVuSans-48"/>
      </g>
     </g>
    </g>
    <g id="ytick_17">
     <g id="line2d_39">
      <g>
       <use style="stroke:#000000;stroke-width:0.8;" x="453.6" xlink:href="#m67349632a4" y="346.19013"/>
      </g>
     </g>
     <g id="text_40">
      <!-- 0.05 -->
      <g transform="translate(460.6 349.989349)scale(0.1 -0.1)">
       <use xlink:href="#DejaVuSans-48"/>
       <use x="63.623047" xlink:href="#DejaVuSans-46"/>
       <use x="95.410156" xlink:href="#DejaVuSans-48"/>
       <use x="159.033203" xlink:href="#DejaVuSans-53"/>
      </g>
     </g>
    </g>
    <g id="ytick_18">
     <g id="line2d_40">
      <g>
       <use style="stroke:#000000;stroke-width:0.8;" x="453.6" xlink:href="#m67349632a4" y="310.6513"/>
      </g>
     </g>
     <g id="text_41">
      <!-- 0.10 -->
      <g transform="translate(460.6 314.450519)scale(0.1 -0.1)">
       <use xlink:href="#DejaVuSans-48"/>
       <use x="63.623047" xlink:href="#DejaVuSans-46"/>
       <use x="95.410156" xlink:href="#DejaVuSans-49"/>
       <use x="159.033203" xlink:href="#DejaVuSans-48"/>
      </g>
     </g>
    </g>
   </g>
   <g id="line2d_41">
    <path clip-path="url(#p0e0b4a6c7b)" d="M 80.754545 404.54809 
L 81.084863 402.594319 
L 81.41518 406.918528 
L 82.075814 411.439893 
L 82.406131 413.234408 
L 82.736448 405.28652 
L 83.066765 402.56017 
L 83.397082 417.661319 
L 83.7274 397.826401 
L 84.057717 412.377619 
L 84.388034 407.653219 
L 84.718351 419.045638 
L 85.048668 398.545936 
L 85.709302 416.220283 
L 86.039619 419.087117 
L 86.369937 412.2071 
L 86.700254 409.375145 
L 87.030571 413.859425 
L 87.360888 391.663497 
L 87.691205 403.604682 
L 88.021522 403.352887 
L 88.351839 417.268429 
L 88.682156 412.565997 
L 89.012474 409.732145 
L 89.342791 399.967167 
L 89.673108 406.744967 
L 90.333742 429.710444 
L 90.664059 405.268431 
L 90.994376 409.48861 
L 91.324693 417.293486 
L 91.655011 400.600467 
L 92.315645 407.318736 
L 92.645962 413.789329 
L 92.976279 405.848344 
L 93.306596 413.588908 
L 93.636913 402.177784 
L 93.96723 408.883292 
L 94.297548 406.524556 
L 94.958182 417.441785 
L 95.288499 413.361004 
L 95.618816 413.42859 
L 95.949133 412.500478 
L 96.27945 406.88522 
L 96.609767 409.933957 
L 96.940085 411.321797 
L 97.600719 404.782951 
L 97.931036 412.761949 
L 98.261353 399.2719 
L 98.59167 399.063696 
L 98.921987 416.690858 
L 99.252304 403.384068 
L 99.582622 401.776099 
L 99.912939 428.591049 
L 100.243256 399.125972 
L 100.90389 416.31328 
L 101.234207 391.533575 
L 101.564524 423.118977 
L 101.894841 414.841717 
L 102.225159 394.266613 
L 102.555476 408.389612 
L 102.885793 396.18446 
L 103.546427 422.622922 
L 103.876744 421.28636 
L 104.207061 415.948418 
L 104.537378 396.649359 
L 104.867696 423.599198 
L 105.198013 419.992701 
L 105.52833 405.232733 
L 105.858647 411.109305 
L 106.188964 407.928854 
L 106.519281 411.097893 
L 106.849598 402.820027 
L 107.179915 410.257732 
L 107.510233 404.883144 
L 107.84055 415.282308 
L 108.170867 415.575833 
L 108.501184 414.530948 
L 108.831501 414.454731 
L 109.161818 406.408141 
L 109.492135 417.522555 
L 109.822452 396.285125 
L 110.15277 410.559482 
L 110.483087 409.386282 
L 110.813404 396.119251 
L 111.474038 411.507246 
L 111.804355 401.451318 
L 112.134672 417.381511 
L 112.464989 403.67523 
L 112.795307 407.708795 
L 113.125624 407.032942 
L 113.455941 402.403288 
L 113.786258 409.32295 
L 114.116575 418.68007 
L 114.446892 401.205347 
L 115.107526 411.877267 
L 115.768161 406.66184 
L 116.098478 407.264648 
L 116.428795 399.531368 
L 116.759112 408.536331 
L 117.089429 396.103977 
L 117.419746 395.986188 
L 117.750063 411.040968 
L 118.080381 412.556362 
L 118.410698 398.815397 
L 118.741015 419.09842 
L 119.071332 410.280917 
L 119.401649 412.311395 
L 119.731966 403.904125 
L 120.062283 401.962045 
L 120.3926 414.383711 
L 120.722918 409.975532 
L 121.053235 403.013489 
L 121.383552 418.101362 
L 121.713869 404.396285 
L 122.044186 414.997776 
L 122.374503 408.472454 
L 122.70482 412.097579 
L 123.035137 410.361541 
L 123.365455 417.102116 
L 123.695772 405.947507 
L 124.026089 416.328408 
L 124.356406 407.602385 
L 124.686723 418.74349 
L 125.01704 405.52434 
L 125.347357 413.143095 
L 125.677674 403.602015 
L 126.007992 409.052044 
L 126.338309 418.322325 
L 126.668626 410.027134 
L 127.32926 414.322341 
L 127.659577 417.327604 
L 127.989894 411.217273 
L 128.320211 409.231064 
L 128.650529 397.061274 
L 128.980846 418.188074 
L 129.311163 419.612254 
L 129.64148 404.631983 
L 129.971797 402.57739 
L 130.302114 403.792285 
L 130.632431 409.81457 
L 130.962748 395.1752 
L 131.293066 399.552594 
L 131.623383 420.632435 
L 131.9537 406.670666 
L 132.284017 411.45993 
L 132.614334 406.954703 
L 132.944651 415.097239 
L 133.274968 405.430563 
L 133.605285 419.677246 
L 133.935603 407.994974 
L 134.26592 406.767991 
L 134.596237 406.959931 
L 134.926554 413.348857 
L 135.256871 396.98474 
L 135.587188 410.71843 
L 135.917505 414.609239 
L 136.247822 400.510406 
L 136.57814 403.73375 
L 136.908457 408.297341 
L 137.238774 408.304276 
L 137.569091 408.658966 
L 137.899408 418.668395 
L 138.229725 403.35823 
L 138.890359 412.457215 
L 139.220677 399.594786 
L 139.550994 394.057078 
L 139.881311 408.515419 
L 140.211628 401.048032 
L 140.541945 398.984404 
L 140.872262 409.987744 
L 141.202579 393.764307 
L 141.532896 406.274483 
L 141.863214 411.791246 
L 142.193531 404.607769 
L 142.523848 401.027896 
L 142.854165 393.683645 
L 143.184482 415.325598 
L 143.514799 402.179136 
L 143.845116 405.845169 
L 144.175433 402.226755 
L 144.505751 408.748186 
L 144.836068 397.961822 
L 145.166385 407.353749 
L 145.496702 400.686967 
L 145.827019 409.063153 
L 146.157336 386.560702 
L 146.81797 403.648084 
L 147.148288 417.678407 
L 147.478605 406.854323 
L 147.808922 415.138257 
L 148.139239 405.192777 
L 148.469556 419.0315 
L 148.799873 400.574781 
L 149.460507 408.162742 
L 149.790825 405.597606 
L 150.121142 406.536798 
L 150.451459 374.77481 
L 150.781776 400.215057 
L 151.112093 414.610575 
L 151.772727 395.74335 
L 152.103044 397.068047 
L 152.433362 404.591206 
L 152.763679 401.993818 
L 153.093996 413.29818 
L 153.424313 409.8774 
L 153.75463 396.942824 
L 154.084947 405.227854 
L 154.415264 409.92238 
L 154.745581 404.06867 
L 155.075899 413.156557 
L 155.406216 401.648073 
L 155.736533 410.416562 
L 156.06685 412.008247 
L 156.397167 392.670886 
L 156.727484 400.807208 
L 157.057801 411.953005 
L 157.388118 412.872082 
L 157.718436 403.636402 
L 158.048753 411.757351 
L 158.37907 406.688716 
L 158.709387 411.600975 
L 159.039704 404.074477 
L 159.370021 403.799397 
L 159.700338 418.9262 
L 160.030655 405.131132 
L 160.360973 402.099352 
L 160.69129 401.226792 
L 161.021607 410.40325 
L 161.351924 413.152728 
L 161.682241 406.258017 
L 162.012558 411.172848 
L 162.342875 405.888609 
L 162.673192 403.004821 
L 163.00351 394.42507 
L 163.333827 402.229596 
L 163.664144 416.730945 
L 163.994461 409.35102 
L 164.324778 411.487353 
L 164.655095 410.600815 
L 164.985412 411.935871 
L 165.315729 408.426338 
L 165.646047 393.493129 
L 165.976364 409.224681 
L 166.306681 412.933889 
L 166.636998 397.152464 
L 166.967315 404.958953 
L 167.297632 409.891903 
L 167.627949 403.170252 
L 167.958266 412.030489 
L 168.288584 410.181824 
L 168.949218 401.109449 
L 169.279535 408.377528 
L 169.609852 401.031695 
L 169.940169 402.687388 
L 170.270486 409.406328 
L 170.600803 396.754169 
L 170.931121 413.184292 
L 171.261438 413.080099 
L 171.922072 401.573631 
L 172.252389 401.23507 
L 172.582706 413.80824 
L 172.913023 412.025685 
L 173.24334 399.937757 
L 173.573658 415.527884 
L 173.903975 406.109585 
L 174.234292 402.454923 
L 174.564609 410.562194 
L 174.894926 413.394139 
L 175.225243 409.202259 
L 175.55556 393.755656 
L 175.885877 407.797935 
L 176.216195 399.825384 
L 176.546512 400.18071 
L 176.876829 395.471198 
L 177.207146 395.50221 
L 177.537463 399.524567 
L 177.86778 394.605988 
L 178.198097 405.133859 
L 178.528414 398.610584 
L 178.858732 396.075793 
L 179.189049 414.404756 
L 179.519366 414.689326 
L 179.849683 405.974727 
L 180.18 402.834039 
L 180.510317 409.204763 
L 180.840634 410.645906 
L 181.170951 402.047281 
L 181.501268 408.985995 
L 181.831586 404.635132 
L 182.161903 394.97199 
L 182.49222 397.960366 
L 182.822537 407.423195 
L 183.152854 406.582065 
L 183.483171 395.927618 
L 183.813488 405.279377 
L 184.143805 404.035454 
L 184.474123 399.261137 
L 184.80444 406.164904 
L 185.134757 392.4074 
L 185.465074 405.816567 
L 185.795391 404.845864 
L 186.125708 415.919986 
L 186.456025 404.472851 
L 186.786342 407.88722 
L 187.11666 406.540752 
L 187.446977 409.363483 
L 187.777294 409.3452 
L 188.107611 405.7666 
L 188.437928 411.222408 
L 188.768245 410.866667 
L 189.098562 397.384255 
L 189.428879 418.949709 
L 189.759197 403.843843 
L 190.089514 413.00927 
L 190.419831 409.782953 
L 191.080465 399.022628 
L 191.410782 402.731168 
L 191.741099 411.042756 
L 192.071416 389.951849 
L 192.401734 408.033042 
L 192.732051 412.909165 
L 193.062368 408.027514 
L 193.392685 413.117898 
L 193.723002 403.869675 
L 194.053319 417.959649 
L 194.383636 410.123849 
L 194.713953 406.783887 
L 195.044271 401.087965 
L 195.374588 407.396755 
L 195.704905 403.735979 
L 196.035222 415.018798 
L 196.365539 404.260781 
L 196.695856 402.696533 
L 197.026173 420.757582 
L 197.35649 415.303663 
L 197.686808 397.503037 
L 198.017125 399.56564 
L 198.347442 400.364868 
L 198.677759 408.1403 
L 199.008076 410.322309 
L 199.66871 400.311442 
L 199.999027 398.916272 
L 200.329345 391.423239 
L 200.989979 420.639654 
L 201.320296 411.877595 
L 201.650613 416.033348 
L 201.98093 399.294171 
L 202.311247 422.866288 
L 202.641564 408.269905 
L 202.971882 412.694357 
L 203.302199 405.741 
L 203.632516 406.01401 
L 203.962833 419.801518 
L 204.29315 408.213574 
L 204.623467 402.406599 
L 204.953784 401.949229 
L 205.284101 405.418671 
L 205.614419 417.02234 
L 205.944736 398.197927 
L 206.275053 401.353161 
L 206.60537 399.984616 
L 206.935687 396.992292 
L 207.266004 410.896864 
L 207.596321 411.105129 
L 207.926638 411.677486 
L 208.256956 411.693265 
L 208.587273 409.201302 
L 208.91759 411.38387 
L 209.247907 404.82566 
L 209.578224 417.077264 
L 209.908541 394.347937 
L 210.238858 411.450691 
L 210.899493 403.632498 
L 211.22981 412.206381 
L 211.560127 402.645174 
L 212.220761 411.056959 
L 212.551078 407.129115 
L 212.881395 419.695179 
L 213.211712 413.225819 
L 213.54203 421.320201 
L 213.872347 411.530738 
L 214.202664 407.30129 
L 214.532981 404.919162 
L 214.863298 411.706674 
L 215.193615 430.873797 
L 215.523932 410.700864 
L 215.854249 411.18083 
L 216.184567 414.430292 
L 216.514884 404.929714 
L 216.845201 410.534524 
L 217.175518 396.541881 
L 217.505835 420.202072 
L 217.836152 420.942223 
L 218.166469 407.868095 
L 218.496786 405.180073 
L 218.827104 395.476219 
L 219.157421 407.710124 
L 219.487738 401.964809 
L 219.818055 412.057819 
L 220.148372 403.168086 
L 220.478689 415.82852 
L 220.809006 405.872575 
L 221.139323 415.739904 
L 221.469641 415.192079 
L 221.799958 420.548934 
L 222.130275 407.332612 
L 222.790909 393.081701 
L 223.121226 409.678845 
L 223.451543 397.567059 
L 223.78186 411.725904 
L 224.442495 399.758616 
L 225.103129 409.744393 
L 225.433446 409.292804 
L 225.763763 393.12742 
L 226.09408 418.3281 
L 226.424397 397.917639 
L 226.754715 400.102003 
L 227.085032 416.506476 
L 227.415349 395.818601 
L 227.745666 405.404959 
L 228.075983 392.623748 
L 228.4063 416.087892 
L 228.736617 402.231149 
L 229.397252 407.309825 
L 230.057886 417.638047 
L 230.388203 401.85065 
L 230.71852 412.385754 
L 231.048837 416.192665 
L 231.379154 399.96365 
L 232.039789 411.254692 
L 232.370106 400.36725 
L 232.700423 405.433198 
L 233.03074 406.570164 
L 233.361057 404.243815 
L 233.691374 394.525346 
L 234.021691 414.342399 
L 234.682326 405.32493 
L 235.012643 397.053967 
L 235.34296 397.640269 
L 235.673277 414.172304 
L 236.003594 423.156511 
L 236.664228 399.964692 
L 236.994545 409.666797 
L 237.324863 407.400405 
L 237.65518 414.004145 
L 237.985497 403.795598 
L 238.646131 397.293141 
L 238.976448 411.172034 
L 239.306765 399.869618 
L 239.637082 413.134057 
L 239.9674 405.318586 
L 240.297717 405.672167 
L 240.628034 417.083941 
L 240.958351 397.736327 
L 241.618985 406.942948 
L 241.949302 416.041998 
L 242.279619 414.373688 
L 242.609937 398.917777 
L 242.940254 416.577257 
L 243.270571 397.416603 
L 243.600888 396.596426 
L 243.931205 410.384518 
L 244.261522 404.030589 
L 244.591839 404.624826 
L 244.922156 403.82453 
L 245.252474 398.876189 
L 245.582791 407.870159 
L 245.913108 399.778634 
L 246.243425 409.348207 
L 246.573742 409.256718 
L 246.904059 397.517784 
L 247.234376 396.354068 
L 247.564693 410.868768 
L 248.225328 395.293577 
L 248.555645 414.809656 
L 248.885962 410.095607 
L 249.216279 409.7 
L 249.546596 415.35857 
L 249.876913 411.820485 
L 250.20723 390.295294 
L 250.537548 421.161132 
L 250.867865 409.94851 
L 251.198182 420.562155 
L 251.858816 406.247186 
L 252.189133 422.163771 
L 252.51945 407.582598 
L 252.849767 409.313715 
L 253.180085 393.908323 
L 253.510402 418.50685 
L 253.840719 407.212297 
L 254.171036 409.26156 
L 254.501353 407.226651 
L 254.83167 401.033322 
L 255.492304 420.519608 
L 255.822622 420.795353 
L 256.152939 408.327434 
L 256.483256 404.242393 
L 256.813573 405.89109 
L 257.14389 400.673005 
L 257.474207 404.378752 
L 257.804524 412.106951 
L 258.134841 401.101874 
L 258.465159 394.607996 
L 258.795476 413.464013 
L 259.125793 422.368193 
L 259.45611 402.591502 
L 260.116744 406.298414 
L 260.777378 414.61434 
L 261.107696 420.482987 
L 261.438013 407.364915 
L 261.76833 408.305803 
L 262.098647 396.488244 
L 262.428964 415.634162 
L 262.759281 398.994562 
L 263.089598 409.175569 
L 263.419915 406.668189 
L 263.750233 400.363341 
L 264.08055 419.764543 
L 264.410867 396.751219 
L 264.741184 393.341764 
L 265.401818 404.014509 
L 266.062452 396.123022 
L 266.39277 406.930477 
L 266.723087 412.850179 
L 267.053404 399.57773 
L 267.383721 400.141822 
L 268.044355 408.169751 
L 268.374672 409.12794 
L 268.704989 398.420423 
L 269.695941 409.785546 
L 270.026258 396.106668 
L 270.356575 404.752614 
L 270.686892 394.026555 
L 271.017209 412.240529 
L 271.677844 399.918838 
L 272.008161 410.383792 
L 272.338478 408.74047 
L 272.668795 403.505037 
L 272.999112 407.935166 
L 273.329429 401.137744 
L 273.659746 419.276303 
L 273.990063 403.782071 
L 274.320381 397.17291 
L 274.650698 401.066864 
L 274.981015 413.046536 
L 275.311332 418.338666 
L 275.641649 397.278566 
L 275.971966 402.043579 
L 276.302283 394.701579 
L 276.6326 407.177437 
L 276.962918 395.671931 
L 277.293235 406.160142 
L 277.623552 412.635978 
L 277.953869 397.31979 
L 278.284186 406.308185 
L 278.614503 397.407958 
L 278.94482 405.922266 
L 279.275137 410.861868 
L 279.605455 393.553916 
L 279.935772 403.604105 
L 280.266089 402.215055 
L 280.596406 421.656798 
L 280.926723 413.406173 
L 281.587357 401.334564 
L 281.917674 417.984511 
L 282.247992 396.04853 
L 282.578309 401.778363 
L 282.908626 416.854387 
L 283.238943 394.923098 
L 283.899577 407.828352 
L 284.229894 395.339945 
L 284.560211 404.152566 
L 284.890529 409.310669 
L 285.220846 406.918469 
L 285.551163 388.636929 
L 285.88148 399.532678 
L 286.211797 402.673587 
L 286.542114 395.898946 
L 286.872431 407.133928 
L 287.202748 413.566162 
L 287.533066 407.630176 
L 287.863383 404.190131 
L 288.1937 390.163094 
L 288.524017 382.45945 
L 288.854334 402.920998 
L 289.184651 392.983806 
L 289.514968 391.039085 
L 289.845285 399.88192 
L 290.175603 405.243981 
L 290.50592 402.77998 
L 291.166554 394.686806 
L 291.496871 384.443956 
L 292.157505 395.95905 
L 292.487822 391.819187 
L 292.81814 396.986922 
L 293.148457 381.009145 
L 293.478774 395.445804 
L 293.809091 389.37774 
L 294.139408 405.506007 
L 294.469725 391.009999 
L 294.800042 412.346005 
L 295.130359 401.587982 
L 295.460677 397.969813 
L 295.790994 389.111703 
L 296.121311 389.339783 
L 296.451628 387.150853 
L 296.781945 374.489731 
L 297.112262 354.321589 
L 297.442579 355.06068 
L 297.772896 348.905822 
L 298.103214 327.603662 
L 298.433531 334.577893 
L 298.763848 321.819603 
L 299.094165 317.639799 
L 299.424482 331.614961 
L 299.754799 328.589469 
L 300.745751 357.541855 
L 301.076068 334.702951 
L 301.406385 335.184503 
L 301.736702 323.144003 
L 302.067019 332.843159 
L 302.397336 335.273882 
L 302.727653 326.812983 
L 303.05797 332.348511 
L 303.388288 319.741088 
L 303.718605 285.526203 
L 304.048922 309.08807 
L 304.379239 306.91947 
L 304.709556 292.96833 
L 305.039873 294.507952 
L 305.37019 305.124426 
L 305.700507 299.974136 
L 306.030825 325.942745 
L 306.691459 340.809659 
L 307.021776 331.160756 
L 307.352093 344.688658 
L 308.012727 351.398135 
L 308.343044 343.008424 
L 308.673362 361.81927 
L 309.003679 333.390679 
L 309.333996 341.484996 
L 309.664313 358.526184 
L 309.99463 351.118429 
L 310.324947 367.673526 
L 310.655264 349.240533 
L 310.985581 353.286331 
L 311.315899 371.264487 
L 311.646216 381.296292 
L 311.976533 379.930647 
L 312.30685 385.845546 
L 312.637167 381.907322 
L 312.967484 384.387079 
L 313.297801 388.617003 
L 313.628118 379.211245 
L 313.958436 391.83288 
L 314.288753 381.054548 
L 314.61907 392.543107 
L 314.949387 397.79887 
L 315.279704 384.425213 
L 315.610021 395.137503 
L 316.270655 376.116481 
L 316.600973 396.043681 
L 316.93129 392.07085 
L 317.261607 397.244231 
L 317.591924 400.253364 
L 317.922241 397.627027 
L 318.252558 390.10275 
L 318.582875 386.683782 
L 318.913192 385.873626 
L 319.24351 396.729787 
L 319.573827 392.178378 
L 319.904144 404.004018 
L 320.234461 393.901224 
L 320.564778 404.012576 
L 320.895095 395.619531 
L 321.225412 393.388986 
L 321.555729 392.501626 
L 321.886047 402.516638 
L 322.546681 389.586684 
L 322.876998 396.06956 
L 323.207315 395.037805 
L 323.537632 388.481102 
L 323.867949 397.483025 
L 324.198266 396.332164 
L 324.858901 403.543664 
L 325.189218 400.756242 
L 325.519535 395.758413 
L 325.849852 397.298005 
L 326.180169 407.723392 
L 326.510486 404.504785 
L 326.840803 407.090225 
L 327.171121 401.468332 
L 327.501438 403.477165 
L 327.831755 411.639817 
L 328.162072 397.008464 
L 328.492389 403.991751 
L 328.822706 389.996212 
L 329.153023 410.735895 
L 329.48334 408.75265 
L 329.813658 405.614708 
L 330.143975 396.91906 
L 330.474292 397.133973 
L 330.804609 414.387844 
L 331.134926 396.763375 
L 331.465243 403.610444 
L 331.79556 407.576179 
L 332.125877 405.810625 
L 332.456195 410.793715 
L 332.786512 400.951397 
L 333.116829 396.700911 
L 333.447146 401.057541 
L 333.777463 407.234094 
L 334.10778 400.251077 
L 334.438097 409.334917 
L 334.768414 395.173852 
L 335.098732 402.17904 
L 335.429049 400.172743 
L 335.759366 404.438898 
L 336.089683 399.831085 
L 336.42 411.09009 
L 336.750317 397.48181 
L 337.080634 391.425504 
L 337.741268 405.138921 
L 338.071586 392.405779 
L 338.401903 411.86868 
L 338.73222 405.357125 
L 339.062537 392.90029 
L 339.392854 391.477184 
L 339.723171 396.089772 
L 340.053488 398.009313 
L 340.383805 399.11954 
L 340.714123 406.181909 
L 341.04444 417.072742 
L 341.374757 407.187622 
L 341.705074 411.056265 
L 342.035391 408.311714 
L 342.365708 395.515827 
L 343.026342 408.887514 
L 343.35666 406.250604 
L 343.686977 406.473195 
L 344.017294 409.65779 
L 344.347611 409.913683 
L 344.677928 400.664258 
L 345.008245 400.774679 
L 345.338562 400.295988 
L 345.668879 391.145809 
L 345.999197 409.157838 
L 346.329514 406.875889 
L 346.659831 407.727297 
L 346.990148 398.287057 
L 347.320465 402.957965 
L 347.650782 411.566434 
L 347.981099 400.175571 
L 348.311416 398.445069 
L 348.972051 416.231644 
L 349.302368 409.500929 
L 349.632685 407.337814 
L 349.963002 412.06767 
L 350.293319 400.672855 
L 350.623636 406.566181 
L 350.953953 386.440189 
L 351.284271 416.508523 
L 351.614588 402.259124 
L 352.275222 423.221653 
L 352.935856 403.526867 
L 353.266173 406.695392 
L 353.59649 408.296116 
L 353.926808 403.438879 
L 354.257125 408.619029 
L 354.587442 420.086403 
L 354.917759 399.596227 
L 355.248076 408.47209 
L 355.578393 397.393298 
L 355.90871 391.473302 
L 356.239027 410.032719 
L 356.569345 394.405017 
L 356.899662 416.139788 
L 357.229979 397.228475 
L 357.560296 409.629469 
L 357.890613 414.458292 
L 358.22093 408.031243 
L 358.551247 414.702805 
L 358.881564 410.576395 
L 359.211882 416.177885 
L 359.872516 408.772548 
L 360.202833 398.71337 
L 360.53315 398.066977 
L 360.863467 400.07058 
L 361.193784 398.150101 
L 361.524101 408.77902 
L 361.854419 392.384607 
L 362.515053 415.772074 
L 362.84537 397.900198 
L 363.506004 402.168538 
L 363.836321 413.009534 
L 364.166638 417.416461 
L 364.496956 403.67646 
L 364.827273 401.034519 
L 365.15759 405.329308 
L 365.487907 399.074596 
L 365.818224 406.134271 
L 366.148541 402.77946 
L 366.478858 402.26033 
L 366.809175 398.147746 
L 367.139493 402.769059 
L 367.46981 411.477046 
L 367.800127 399.062722 
L 368.130444 418.67664 
L 368.460761 417.934672 
L 368.791078 405.973545 
L 369.121395 408.375876 
L 369.451712 388.140243 
L 369.78203 418.209825 
L 370.112347 409.546759 
L 370.442664 409.740639 
L 370.772981 408.848518 
L 371.103298 410.118396 
L 371.433615 409.789341 
L 372.094249 414.169255 
L 372.424567 397.587725 
L 372.754884 402.295648 
L 373.085201 395.528279 
L 373.415518 406.568296 
L 373.745835 410.172954 
L 374.076152 400.001468 
L 374.406469 420.073182 
L 374.736786 397.532452 
L 375.067104 394.414175 
L 375.727738 403.347219 
L 376.058055 412.119761 
L 376.388372 402.00396 
L 376.718689 402.921626 
L 377.049006 410.361385 
L 377.379323 395.763981 
L 377.709641 400.632598 
L 378.039958 412.76275 
L 378.370275 419.706422 
L 378.700592 402.29991 
L 379.030909 409.935022 
L 379.361226 401.754972 
L 379.691543 404.874355 
L 380.02186 400.398964 
L 380.352178 400.859416 
L 380.682495 403.245578 
L 381.012812 396.83191 
L 381.673446 404.267463 
L 382.003763 414.130772 
L 382.33408 388.173429 
L 382.664397 410.37311 
L 382.994715 405.748459 
L 383.325032 398.736388 
L 383.655349 412.826067 
L 383.985666 409.723186 
L 384.315983 413.477254 
L 384.6463 393.61595 
L 384.976617 405.776678 
L 385.306934 408.470314 
L 385.637252 397.08725 
L 385.967569 409.420506 
L 386.297886 406.483579 
L 386.628203 406.940086 
L 386.95852 410.327396 
L 387.288837 403.174826 
L 387.619154 404.613624 
L 387.949471 397.287173 
L 388.279789 402.644165 
L 388.610106 405.429972 
L 389.27074 394.807886 
L 389.601057 417.399998 
L 389.931374 407.251874 
L 390.261691 418.599807 
L 390.592008 409.829542 
L 390.922326 415.554065 
L 391.252643 411.093628 
L 391.58296 399.350385 
L 391.913277 393.362867 
L 392.243594 404.832904 
L 392.573911 402.95319 
L 392.904228 409.037958 
L 393.234545 392.701709 
L 393.564863 402.400839 
L 394.555814 395.415675 
L 394.886131 410.692924 
L 395.216448 404.29296 
L 395.546765 404.346774 
L 395.877082 393.395926 
L 396.2074 398.104582 
L 396.537717 405.104073 
L 396.868034 397.986856 
L 397.198351 409.758473 
L 397.528668 401.766367 
L 397.858985 402.548796 
L 398.189302 415.482237 
L 398.519619 402.306039 
L 398.849937 403.712183 
L 399.180254 412.365757 
L 399.510571 406.168397 
L 399.840888 410.317745 
L 400.171205 411.054805 
L 400.501522 410.636207 
L 400.831839 411.841025 
L 401.162156 404.820162 
L 401.492474 413.958224 
L 401.822791 418.384376 
L 402.153108 397.581887 
L 402.483425 393.34988 
L 402.813742 402.141959 
L 403.144059 417.390775 
L 403.474376 401.63883 
L 403.804693 402.792312 
L 404.135011 417.326413 
L 404.795645 404.183669 
L 405.125962 412.72915 
L 405.786596 390.53036 
L 406.116913 409.666806 
L 406.44723 420.478475 
L 406.777548 406.38335 
L 407.107865 400.485211 
L 407.438182 408.317925 
L 407.768499 403.462083 
L 408.098816 400.878772 
L 408.429133 419.948297 
L 408.75945 409.569308 
L 409.089767 410.249642 
L 409.420085 416.456393 
L 409.750402 407.009009 
L 410.080719 403.375154 
L 410.411036 409.288553 
L 410.741353 407.247922 
L 411.07167 400.042354 
L 411.401987 399.353645 
L 412.062622 414.166819 
L 412.392939 409.929538 
L 412.723256 397.732774 
L 413.053573 423.743166 
L 413.38389 409.495045 
L 413.714207 409.956438 
L 414.044524 407.520508 
L 414.374841 408.323537 
L 414.705159 419.47132 
L 415.035476 413.455921 
L 416.026427 409.168923 
L 416.356744 397.870027 
L 416.687061 412.023856 
L 417.017378 401.161717 
L 417.347696 417.330904 
L 417.678013 424.394257 
L 418.00833 409.569158 
L 418.338647 419.663363 
L 418.668964 410.137775 
L 418.999281 413.872999 
L 419.329598 413.73865 
L 419.659915 403.275601 
L 419.990233 412.456198 
L 420.32055 402.155368 
L 420.650867 403.774991 
L 421.311501 424.279332 
L 421.641818 404.694725 
L 421.972135 409.655294 
L 422.302452 408.949351 
L 422.63277 406.963941 
L 422.963087 411.797503 
L 423.293404 409.04935 
L 423.623721 424.496292 
L 423.954038 415.575209 
L 424.614672 406.84551 
L 424.944989 409.776394 
L 425.275307 397.893885 
L 425.605624 390.784951 
L 425.935941 393.612871 
L 426.266258 403.676035 
L 426.596575 401.838585 
L 426.926892 403.645852 
L 427.257209 397.317317 
L 427.587526 400.379937 
L 427.917844 413.976563 
L 428.248161 412.314739 
L 428.578478 394.386031 
L 428.908795 416.850756 
L 429.239112 409.836268 
L 429.569429 417.700201 
L 429.899746 402.800819 
L 430.230063 416.986875 
L 430.560381 410.740835 
L 430.890698 416.004997 
L 431.221015 419.492985 
L 431.551332 411.084703 
L 431.881649 412.691084 
L 432.211966 399.861183 
L 432.542283 408.166971 
L 432.8726 396.734463 
L 433.202918 411.373515 
L 433.533235 409.973159 
L 433.863552 397.165206 
L 434.193869 415.927345 
L 434.524186 420.929681 
L 434.854503 395.592208 
L 435.18482 410.809753 
L 435.515137 399.439787 
L 435.845455 403.948808 
L 435.845455 403.948808 
" style="fill:none;stroke:#1f77b4;stroke-linecap:square;stroke-width:1.5;"/>
   </g>
   <g id="patch_31">
    <path d="M 63 438.141176 
L 63 278.258824 
" style="fill:none;stroke:#000000;stroke-linecap:square;stroke-linejoin:miter;stroke-width:0.8;"/>
   </g>
   <g id="patch_32">
    <path d="M 453.6 438.141176 
L 453.6 278.258824 
" style="fill:none;stroke:#000000;stroke-linecap:square;stroke-linejoin:miter;stroke-width:0.8;"/>
   </g>
   <g id="patch_33">
    <path d="M 63 438.141176 
L 453.6 438.141176 
" style="fill:none;stroke:#000000;stroke-linecap:square;stroke-linejoin:miter;stroke-width:0.8;"/>
   </g>
   <g id="patch_34">
    <path d="M 63 278.258824 
L 453.6 278.258824 
" style="fill:none;stroke:#000000;stroke-linecap:square;stroke-linejoin:miter;stroke-width:0.8;"/>
   </g>
  </g>
 </g>
 <defs>
  <clipPath id="p0e0b4a6c7b">
   <rect height="159.882353" width="390.6" x="63" y="278.258824"/>
  </clipPath>
  <clipPath id="p270fca8785">
   <rect height="159.882353" width="390.6" x="63" y="470.117647"/>
  </clipPath>
 </defs>
</svg>
